<?xml version="1.0" encoding="UTF-8" standalone="no"?>
<svg
   xmlns:dc="http://purl.org/dc/elements/1.1/"
   xmlns:cc="http://creativecommons.org/ns#"
   xmlns:rdf="http://www.w3.org/1999/02/22-rdf-syntax-ns#"
   xmlns:svg="http://www.w3.org/2000/svg"
   xmlns="http://www.w3.org/2000/svg"
   xmlns:sodipodi="http://sodipodi.sourceforge.net/DTD/sodipodi-0.dtd"
   xmlns:inkscape="http://www.inkscape.org/namespaces/inkscape"
   width="480"
   height="480"
   viewBox="0 0 126.99999 127"
   version="1.1"
   id="svg8"
   inkscape:version="1.0.1 (3bc2e813f5, 2020-09-07)"
   sodipodi:docname="click.svg"
   inkscape:export-filename="X:\source\draft\pantsu_coin\click.png"
   inkscape:export-xdpi="96"
   inkscape:export-ydpi="96">
  <defs
     id="defs2" />
  <sodipodi:namedview
     id="base"
     pagecolor="#ffffff"
     bordercolor="#666666"
     borderopacity="1.0"
     inkscape:pageopacity="0.0"
     inkscape:pageshadow="2"
     inkscape:zoom="0.70710678"
     inkscape:cx="139.79665"
     inkscape:cy="927.66565"
     inkscape:document-units="px"
     inkscape:current-layer="layer1"
     inkscape:document-rotation="0"
     showgrid="false"
     inkscape:window-width="2560"
     inkscape:window-height="1356"
     inkscape:window-x="-8"
     inkscape:window-y="-8"
     inkscape:window-maximized="1"
     units="px" />
  <metadata
     id="metadata5">
    <rdf:RDF>
      <cc:Work
         rdf:about="">
        <dc:format>image/svg+xml</dc:format>
        <dc:type
           rdf:resource="http://purl.org/dc/dcmitype/StillImage" />
        <dc:title></dc:title>
      </cc:Work>
    </rdf:RDF>
  </metadata>
  <g
     inkscape:label="Layer 1"
     inkscape:groupmode="layer"
     id="layer1">
    <g
       aria-label="Click to get PANTSU ★ Click to get PANTSU ★ Click to get PANTSU ★ Click to get PANTSU ★"
       transform="matrix(0.44587121,-0.81665755,0.81665755,0.44587121,-104.70522,85.192304)"
       id="text849-3"
       style="font-size:8.46667px;line-height:1.25;font-family:'Josefin Sans';-inkscape-font-specification:'Josefin Sans';letter-spacing:0px;word-spacing:0px;fill:#ffffff;stroke-width:0.264583">
      <path
         d="m 166.87681,152.89776 q -0.0941,-0.15716 -0.20816,-0.42549 -0.11409,-0.26833 -0.18138,-0.62762 -0.0677,-0.35084 -0.0475,-0.76522 0.043,-0.70995 0.31626,-1.27307 0.27281,-0.55466 0.71499,-0.93155 0.44217,-0.37688 1.00255,-0.57001 0.56843,-0.18425 1.19422,-0.1538 0.68499,0.0333 1.24935,0.28119 0.5724,0.25673 0.97548,0.68322 0.41153,0.42691 0.62157,0.98811 0.20963,0.56967 0.17753,1.22929 -0.0267,0.54968 -0.20078,0.99048 -0.16558,0.4412 -0.38417,0.75268 l -0.74505,-0.36685 q 0.18148,-0.24547 0.35139,-0.6017 0.1695,-0.34777 0.1909,-0.78752 0.0218,-0.4482 -0.13643,-0.8543 -0.15825,-0.40611 -0.46479,-0.72619 -0.30654,-0.32007 -0.72919,-0.51865 -0.4146,-0.18971 -0.90509,-0.21358 -0.49894,-0.0243 -0.93764,0.10695 -0.43065,0.1401 -0.75754,0.4124 -0.3273,0.28076 -0.52505,0.68649 -0.19776,0.40574 -0.22286,0.9216 -0.0226,0.46511 0.10344,0.83574 0.12606,0.37064 0.29213,0.61607 z"
         style="fill:#ffffff;stroke-width:0.264583"
         id="path857" />
      <path
         d="m 172.76446,154.80764 -0.0908,0.78215 -6.5095,-0.75555 0.0908,-0.78215 z"
         style="fill:#ffffff;stroke-width:0.264583"
         id="path859" />
      <path
         d="m 169.44743,156.71478 -0.11898,0.77836 -3.46495,-0.52965 0.11898,-0.77836 z m 1.26438,0.13331 q 0.18412,0.0281 0.28792,0.18962 0.10251,0.16984 0.0756,0.3456 -0.0269,0.17575 -0.17288,0.29048 -0.14729,0.12309 -0.33142,0.0949 -0.1925,-0.0294 -0.29629,-0.19089 -0.0967,-0.15183 -0.0698,-0.32759 0.0269,-0.17575 0.17544,-0.30721 0.14729,-0.12309 0.33142,-0.0949 z"
         style="fill:#ffffff;stroke-width:0.264583"
         id="path861" />
      <path
         d="m 165.38795,161.16076 q -0.13482,-0.26967 -0.17627,-0.61526 -0.0414,-0.34558 0.0249,-0.66904 0.11573,-0.56399 0.42646,-0.94102 0.31072,-0.37704 0.75818,-0.53588 0.45405,-0.14884 1.00145,-0.0365 0.54739,0.11233 0.90274,0.44453 0.35364,0.3405 0.48589,0.79115 0.13885,0.46064 0.0418,0.93339 -0.0851,0.41469 -0.26757,0.71433 -0.18419,0.30793 -0.43089,0.49931 l -0.41935,-0.48362 q 0.14674,-0.12547 0.28222,-0.32239 0.13548,-0.19692 0.19164,-0.47062 0.0613,-0.29858 -0.0436,-0.58802 -0.0982,-0.27945 -0.333,-0.4832 -0.23648,-0.19545 -0.56823,-0.26353 -0.31517,-0.0647 -0.6195,0.0285 -0.29603,0.0948 -0.50808,0.32791 -0.20374,0.23477 -0.27352,0.57481 -0.0459,0.22394 -0.017,0.42002 0.0272,0.20437 0.11269,0.37749 z"
         style="fill:#ffffff;stroke-width:0.264583"
         id="path863" />
      <path
         d="m 164.82861,162.08348 6.31457,1.75234 -0.21055,0.75873 -6.31457,-1.75234 z m 1.80659,2.19716 -2.6737,0.92749 0.24677,-0.88926 2.14307,-0.66177 z m -0.87458,-1.37618 0.74647,0.12807 1.07972,2.50508 -0.52881,0.35409 z"
         style="fill:#ffffff;stroke-width:0.264583"
         id="path865" />
      <path
         d="m 167.31561,170.82569 -0.29017,0.73198 -1.44823,-0.5741 -0.35569,0.89727 -0.57457,-0.22777 0.3557,-0.89727 -2.6682,-1.05772 0.29017,-0.73198 2.6682,1.05772 0.23713,-0.59818 0.57456,0.22777 -0.23713,0.59818 z"
         style="fill:#ffffff;stroke-width:0.264583"
         id="path867" />
      <path
         d="m 163.35648,171.95939 q 0.47446,0.22457 0.75205,0.62761 0.27397,0.4107 0.30755,0.91368 0.0336,0.50299 -0.2055,1.00807 -0.24631,0.52038 -0.65297,0.80562 -0.40667,0.28525 -0.89072,0.31841 -0.48406,0.0332 -0.95853,-0.19141 -0.47447,-0.22458 -0.76333,-0.62359 -0.28122,-0.39539 -0.31479,-0.89837 -0.0372,-0.49534 0.20912,-1.01572 0.23907,-0.50508 0.63404,-0.80522 0.39901,-0.28886 0.88266,-0.34096 0.48768,-0.0408 1.00042,0.20188 z m -0.34452,0.70808 q -0.30611,-0.14489 -0.62385,-0.12668 -0.31009,0.0218 -0.56416,0.1826 -0.25769,0.16841 -0.39171,0.45156 -0.14127,0.29846 -0.10453,0.59686 0.0331,0.30606 0.21642,0.55206 0.19096,0.24963 0.49707,0.39452 0.30611,0.14489 0.61257,0.13071 0.31412,-0.0106 0.57181,-0.17898 0.26172,-0.15713 0.40299,-0.45559 0.13764,-0.2908 0.0969,-0.60048 -0.0444,-0.30203 -0.23173,-0.55931 -0.18331,-0.24601 -0.48176,-0.38727 z"
         style="fill:#ffffff;stroke-width:0.264583"
         id="path869" />
      <path
         d="m 155.90613,178.43635 q 0.2097,-0.32819 0.44773,-0.52776 0.2309,-0.20413 0.49866,-0.32441 0.2632,-0.11316 0.55296,-0.18925 l 0.20331,0.67247 q -0.37161,0.0941 -0.64789,0.2592 -0.27629,0.16508 -0.46775,0.46473 -0.21426,0.33533 -0.24598,0.63658 -0.0434,0.30382 0.0788,0.55275 0.11514,0.24437 0.37198,0.40849 l 0.79452,0.51771 -0.16489,-0.025 q -0.22473,-0.32445 -0.22451,-0.79654 0.007,-0.46753 0.31278,-0.94555 0.25985,-0.40667 0.68557,-0.61693 0.42116,-0.20313 0.90296,-0.18666 0.48438,0.0282 0.92672,0.31081 0.46375,0.29631 0.67659,0.73373 0.21997,0.44197 0.2035,0.92377 -0.0165,0.4818 -0.28088,0.89561 -0.25073,0.3924 -0.61996,0.60861 -0.36666,0.2279 -0.71211,0.21817 l -0.0985,-0.11317 0.52518,0.43604 -0.38749,0.60645 -2.97514,-1.90098 q -0.39954,-0.25528 -0.59553,-0.67189 -0.19599,-0.4166 -0.14701,-0.91782 0.049,-0.50122 0.38632,-1.02918 z m 3.61533,0.8833 q -0.28538,-0.18235 -0.60744,-0.19723 -0.32206,-0.0149 -0.60349,0.12681 -0.286,0.14883 -0.46834,0.43422 -0.16868,0.26398 -0.20813,0.53014 -0.0369,0.27786 0.036,0.52541 0.0801,0.2521 0.26476,0.45049 l 0.58504,0.37382 q 0.25507,0.0726 0.50776,0.023 0.25983,-0.045 0.47765,-0.19718 0.22495,-0.14764 0.3845,-0.39735 0.18235,-0.28539 0.20436,-0.60288 0.0175,-0.31037 -0.13137,-0.59636 -0.14169,-0.28144 -0.44135,-0.4729 z"
         style="fill:#ffffff;stroke-width:0.264583"
         id="path871" />
      <path
         d="m 154.4443,183.42611 q 0.36279,-0.47932 0.81242,-0.68054 0.45637,-0.19612 0.93024,-0.13477 0.47551,0.0732 0.90757,0.40024 0.41181,0.31169 0.59095,0.77645 0.17915,0.46477 0.11597,0.96911 -0.0632,0.50434 -0.3902,0.9364 -0.419,0.55358 -1.01897,0.67286 -0.59997,0.11929 -1.26413,-0.18166 l 0.9323,-2.91524 0.48372,0.13251 -0.74213,2.41146 0.0144,-0.20145 q 0.2841,0.0876 0.58919,0.0212 0.31185,-0.0613 0.54179,-0.36507 0.19417,-0.25654 0.21919,-0.55615 0.0318,-0.29451 -0.0974,-0.57278 -0.12916,-0.27828 -0.40595,-0.48778 -0.29029,-0.21972 -0.60505,-0.26682 -0.308,-0.042 -0.59467,0.0702 -0.28503,0.12405 -0.48942,0.39409 -0.13796,0.18228 -0.1982,0.40215 -0.0653,0.22662 -0.0697,0.45689 l -0.68553,-0.0623 q 0.0166,-0.31658 0.12815,-0.64629 0.1064,-0.32296 0.29546,-0.57275 z"
         style="fill:#ffffff;stroke-width:0.264583"
         id="path873" />
      <path
         d="m 156.39094,189.19881 -0.51333,0.59707 -1.1813,-1.01562 -0.62924,0.7319 -0.46867,-0.40294 0.62924,-0.73189 -2.17642,-1.87116 0.51332,-0.59707 2.17643,1.87116 0.41949,-0.48793 0.46867,0.40293 -0.41949,0.48793 z"
         style="fill:#ffffff;stroke-width:0.264583"
         id="path875" />
      <path
         d="m 151.78003,195.5823 q -0.48783,0.4576 -0.99004,0.61524 -0.49641,0.16382 -0.97128,0.0288 -0.48105,-0.12919 -0.89231,-0.56763 -0.24908,-0.26553 -0.41208,-0.60019 -0.15721,-0.32848 -0.17507,-0.70642 -0.0182,-0.36597 0.14996,-0.75592 0.16821,-0.38995 0.57578,-0.77225 l 0.66074,-0.61979 -1.54078,-1.64259 0.59899,-0.56186 4.1879,4.46465 z m -2.17018,-2.18984 q -0.26553,0.24907 -0.35734,0.49771 -0.0918,0.24864 -0.069,0.471 0.0286,0.22853 0.12442,0.41728 0.0958,0.18875 0.20584,0.30608 0.12744,0.13585 0.30389,0.23733 0.18224,0.10766 0.39727,0.12652 0.21465,0.0308 0.45089,-0.0515 0.23586,-0.0703 0.47669,-0.29623 l 0.69162,-0.64874 -1.56974,-1.67348 z"
         style="fill:#ffffff;stroke-width:0.264583"
         id="path877" />
      <path
         d="m 145.98362,192.63821 1.83941,6.66487 -0.0399,0.0314 -6.03815,-3.36145 0.73861,-0.58111 4.71672,2.76361 -0.22355,0.66067 -1.62525,-5.68065 z m 0.20343,2.79174 -1.78995,1.40827 -0.65269,-0.39142 2.1892,-1.72238 z"
         style="fill:#ffffff;stroke-width:0.264583"
         id="path879" />
      <path
         d="m 136.19713,199.275 6.55605,1.56973 -0.23253,0.0751 -2.4198,-3.84921 0.69691,-0.43451 3.33715,5.35259 -0.0359,0.0224 -6.5219,-1.61097 0.18764,-0.0671 2.4422,3.88513 -0.68973,0.43002 -3.34162,-5.35976 z"
         style="fill:#ffffff;stroke-width:0.264583"
         id="path881" />
      <path
         d="m 137.81114,205.55946 -3.64791,1.79133 -0.34707,-0.70679 1.47436,-0.72399 -2.35111,-4.78789 0.73718,-0.36199 2.35111,4.78788 1.43637,-0.70533 z"
         style="fill:#ffffff;stroke-width:0.264583"
         id="path883" />
      <path
         d="m 129.14822,208.2029 q 0.35035,0.0356 0.74046,0.0101 0.3901,-0.0255 0.72122,-0.15516 0.45725,-0.17908 0.64981,-0.5 0.18468,-0.31784 0.0457,-0.6726 -0.10498,-0.26805 -0.35252,-0.38933 -0.24446,-0.11339 -0.58076,-0.13626 -0.3363,-0.0229 -0.69007,-0.0207 -0.30818,0.002 -0.61774,-0.0218 -0.30956,-0.0242 -0.58864,-0.13317 -0.28696,-0.10585 -0.51328,-0.33546 -0.2342,-0.22652 -0.39475,-0.63647 -0.176,-0.44937 -0.0925,-0.90944 0.0756,-0.45698 0.4101,-0.83348 0.33446,-0.3765 0.90997,-0.60189 0.37841,-0.1482 0.75925,-0.19734 0.37296,-0.046 0.71714,-0.0263 0.34727,0.0277 0.63456,0.0879 l -0.10434,0.73192 q -0.24169,-0.0599 -0.53549,-0.0903 -0.2907,-0.0225 -0.58962,0.004 -0.29583,0.034 -0.54811,0.13283 -0.26804,0.10498 -0.49115,0.30147 -0.2279,0.20746 -0.32106,0.48036 -0.0932,0.2729 0.0396,0.6119 0.11424,0.29169 0.34601,0.41915 0.22698,0.13843 0.53174,0.17364 0.30786,0.0431 0.63489,0.0423 0.30818,-0.002 0.63042,0.008 0.32533,0.0181 0.62977,0.0989 0.30752,0.0887 0.55132,0.29328 0.24379,0.20458 0.38891,0.57511 0.17599,0.44937 0.0928,0.86384 -0.088,0.42545 -0.39229,0.76286 -0.30122,0.3453 -0.78383,0.55249 -0.55186,0.21613 -1.02218,0.24575 -0.4782,0.0327 -0.87862,-0.0378 z"
         style="fill:#ffffff;stroke-width:0.264583"
         id="path885" />
      <path
         d="m 125.54271,206.39978 q -0.11433,-0.3988 -0.39252,-0.66255 -0.28399,-0.25328 -0.65273,-0.34134 -0.36875,-0.0881 -0.76755,0.0263 -0.41508,0.11899 -0.68931,0.39137 -0.27422,0.27238 -0.37275,0.63532 -0.0962,0.37108 0.0181,0.76988 l 1.08958,3.80084 -0.77319,0.22165 -1.09658,-3.82526 q -0.18432,-0.64297 -0.0208,-1.20948 0.15534,-0.56419 0.58529,-0.96929 0.42181,-0.40276 1.04036,-0.58008 v 0 q 0.61856,-0.17732 1.18969,-0.0592 0.57113,0.11812 1.00178,0.51432 0.43066,0.3962 0.61498,1.03916 l 1.09658,3.82526 -0.78133,0.22399 z"
         style="fill:#ffffff;stroke-width:0.264583"
         id="path887" />
      <path
         d="m 117.93656,210.14813 -2.8598,0.31728 -0.57389,2.92539 -1.20115,-2.72846 -2.8598,0.31728 2.15516,-1.86962 -1.15735,-2.63349 2.45411,1.42479 2.08213,-1.92807 -0.55196,2.82314 z"
         style="fill:#ffffff;stroke-width:0.264583"
         id="path889" />
      <path
         d="m 101.43097,207.26368 q 0.15757,-0.0934 0.4264,-0.20629 0.26883,-0.11291 0.62842,-0.17861 0.35113,-0.0661 0.76542,-0.0442 0.70975,0.0462 1.27166,0.32186 0.55345,0.27525 0.92839,0.71908 0.37493,0.44383 0.56559,1.00506 0.18175,0.56923 0.14854,1.19489 -0.0363,0.68483 -0.28669,1.24809 -0.25924,0.57126 -0.68751,0.97246 -0.42871,0.40965 -0.99084,0.61722 -0.57058,0.20711 -1.23005,0.17211 -0.54956,-0.0292 -0.98959,-0.20514 -0.44047,-0.16752 -0.75098,-0.38748 l 0.37012,-0.74343 q 0.24467,0.18256 0.60015,0.35404 0.34702,0.17103 0.78667,0.19437 0.4481,0.0238 0.8549,-0.13267 0.4068,-0.15646 0.72822,-0.46159 0.32143,-0.30512 0.52187,-0.72689 0.19153,-0.41377 0.21756,-0.90414 0.0265,-0.49883 -0.10283,-0.93811 -0.1382,-0.43126 -0.40906,-0.75934 -0.27931,-0.32854 -0.68417,-0.52808 -0.40486,-0.19954 -0.9206,-0.22691 -0.46501,-0.0247 -0.8362,0.0998 -0.37118,0.12444 -0.61734,0.28942 z"
         style="fill:#ffffff;stroke-width:0.264583"
         id="path891" />
      <path
         d="m 99.494818,213.14273 -0.781738,-0.0942 0.784472,-6.50608 0.781738,0.0943 z"
         style="fill:#ffffff;stroke-width:0.264583"
         id="path893" />
      <path
         d="m 97.602316,209.81723 -0.777821,-0.12246 0.545102,-3.46255 0.777821,0.12245 z m -0.138956,1.26376 q -0.02897,0.184 -0.190899,0.28707 -0.170296,0.10176 -0.345933,0.0741 -0.175637,-0.0276 -0.289705,-0.17417 -0.122432,-0.14784 -0.09347,-0.33184 0.03028,-0.19237 0.192216,-0.29544 0.152252,-0.096 0.327889,-0.0684 0.175637,0.0276 0.306433,0.1768 0.122432,0.14784 0.09346,0.33184 z"
         style="fill:#ffffff;stroke-width:0.264583"
         id="path895" />
      <path
         d="m 93.174534,205.73788 q 0.270269,-0.1336 0.616036,-0.1735 0.345767,-0.0399 0.668928,0.0279 0.563459,0.11825 0.939102,0.43066 0.375643,0.31242 0.532473,0.76058 0.146804,0.45471 0.03203,1.0016 -0.114771,0.54689 -0.448564,0.90074 -0.34208,0.35212 -0.793314,0.48235 -0.46126,0.13678 -0.933572,0.0377 -0.414308,-0.087 -0.713124,-0.27077 -0.307101,-0.18557 -0.497379,-0.43313 l 0.4855,-0.41717 q 0.124806,0.1473 0.321118,0.28366 0.196312,0.13636 0.469756,0.19375 0.298302,0.0626 0.588213,-0.0409 0.279886,-0.097 0.484683,-0.33084 0.196511,-0.23559 0.266069,-0.56704 0.06608,-0.31487 -0.02569,-0.61962 -0.09351,-0.29646 -0.325622,-0.50954 -0.233856,-0.2048 -0.573589,-0.27609 -0.223727,-0.047 -0.419934,-0.0189 -0.204493,0.0263 -0.37799,0.111 z"
         style="fill:#ffffff;stroke-width:0.264583"
         id="path897" />
      <path
         d="m 92.254538,205.17445 -1.780658,6.30664 -0.757775,-0.21396 1.780659,-6.30664 z m -2.205249,1.79671 -0.915479,-2.67784 0.888145,0.25076 0.652148,2.14602 z m 1.380092,-0.8684 -0.13142,0.74589 -2.509896,1.06847 -0.351714,-0.53039 z"
         style="fill:#ffffff;stroke-width:0.264583"
         id="path899" />
      <path
         d="m 83.501167,207.62214 -0.730674,-0.29346 0.580592,-1.44563 -0.895666,-0.35972 0.230343,-0.57354 0.895666,0.35972 1.069678,-2.66343 0.730674,0.29345 -1.069677,2.66343 0.59711,0.23981 -0.230343,0.57354 -0.597111,-0.23981 z"
         style="fill:#ffffff;stroke-width:0.264583"
         id="path901" />
      <path
         d="m 82.385318,203.658 q -0.226699,0.47346 -0.630977,0.74925 -0.411915,0.27212 -0.915045,0.30345 -0.503131,0.0313 -1.007135,-0.21001 -0.519277,-0.24863 -0.802698,-0.65657 -0.283421,-0.40793 -0.314419,-0.89214 -0.031,-0.4842 0.195701,-0.95766 0.226699,-0.47345 0.626997,-0.76053 0.396642,-0.27944 0.899773,-0.31076 0.495494,-0.035 1.014771,0.21366 0.504004,0.24132 0.802374,0.63764 0.287078,0.4003 0.337005,0.88418 0.03863,0.48785 -0.206347,0.99949 z m -0.706531,-0.34768 q 0.146258,-0.30546 0.129464,-0.62328 -0.02045,-0.31018 -0.18007,-0.56496 -0.167257,-0.25844 -0.449804,-0.39373 -0.297821,-0.1426 -0.596386,-0.1072 -0.306201,0.0317 -0.553026,0.21394 -0.250482,0.18985 -0.396739,0.4953 -0.146258,0.30546 -0.133445,0.61199 0.0092,0.31416 0.176414,0.5726 0.155964,0.26242 0.453784,0.40502 0.290184,0.13895 0.600042,0.0996 0.302222,-0.043 0.56034,-0.22922 0.246825,-0.18221 0.389426,-0.48003 z"
         style="fill:#ffffff;stroke-width:0.264583"
         id="path903" />
      <path
         d="m 75.941643,196.17878 q 0.327256,0.21116 0.525761,0.45008 0.203096,0.23181 0.322192,0.5001 0.111982,0.2637 0.186784,0.55379 l -0.673366,0.20032 q -0.09247,-0.37202 -0.256317,-0.64904 -0.163848,-0.27702 -0.462647,-0.46981 -0.334371,-0.21575 -0.635474,-0.24882 -0.303626,-0.0448 -0.5531,0.0764 -0.244883,0.11405 -0.410137,0.37016 l -0.521238,0.79221 0.02571,-0.16478 q 0.325444,-0.22329 0.797527,-0.22097 0.467491,0.009 0.944147,0.31699 0.405514,0.26166 0.613877,0.68831 0.201249,0.42206 0.182633,0.90378 -0.03032,0.48425 -0.314924,0.92533 -0.298376,0.46243 -0.736733,0.67331 -0.442948,0.21801 -0.924668,0.19939 -0.481721,-0.0186 -0.894348,-0.28486 -0.391285,-0.25247 -0.605848,-0.62267 -0.226267,-0.36767 -0.215003,-0.71306 l 0.113608,-0.098 -0.438374,0.52324 -0.604713,-0.39018 1.914194,-2.96665 q 0.257062,-0.3984 0.674534,-0.59253 0.417472,-0.19414 0.918469,-0.14293 0.500996,0.0512 1.027452,0.39089 z m -0.899378,3.61137 q 0.183616,-0.28457 0.199928,-0.60656 0.01631,-0.32199 -0.124127,-0.60405 -0.147554,-0.28665 -0.432124,-0.47027 -0.263228,-0.16984 -0.529217,-0.21048 -0.277693,-0.0381 -0.525558,0.0337 -0.252455,0.0789 -0.451671,0.26275 l -0.376412,0.58337 q -0.07368,0.25474 -0.02527,0.50766 0.04382,0.26002 0.19505,0.47852 0.146639,0.2256 0.395638,0.38627 0.284571,0.18361 0.601968,0.20704 0.310284,0.0188 0.596938,-0.12872 0.282064,-0.14044 0.47486,-0.43924 z"
         style="fill:#ffffff;stroke-width:0.264583"
         id="path905" />
      <path
         d="m 70.95844,194.69481 q 0.477702,0.36491 0.676931,0.81542 0.194089,0.45724 0.130637,0.93083 -0.07532,0.47518 -0.404256,0.90579 -0.313517,0.41042 -0.779073,0.5875 -0.465556,0.17708 -0.969611,0.11167 -0.504056,-0.0654 -0.934661,-0.39436 -0.551712,-0.42145 -0.668333,-1.02194 -0.116621,-0.60049 0.187272,-1.26331 l 2.911073,0.94522 -0.134659,0.48313 -2.408139,-0.75282 0.201379,0.0153 q -0.08887,0.28371 -0.02383,0.5891 0.0599,0.31211 0.362668,0.54339 0.255672,0.19531 0.555171,0.22166 0.294359,0.0331 0.573207,-0.0948 0.278847,-0.12793 0.489572,-0.40379 0.221004,-0.28931 0.269504,-0.60386 0.04336,-0.30781 -0.06756,-0.59498 -0.12279,-0.28557 -0.391918,-0.49116 -0.181661,-0.13877 -0.401263,-0.19998 -0.226329,-0.0663 -0.456584,-0.0718 l 0.06532,-0.68525 q 0.316506,0.018 0.645722,0.13101 0.322486,0.10784 0.57143,0.29801 z"
         style="fill:#ffffff;stroke-width:0.264583"
         id="path907" />
      <path
         d="m 65.17717,196.61584 -0.594792,-0.51596 1.020839,-1.1768 -0.7291,-0.63247 0.405007,-0.46688 0.729099,0.63247 1.880784,-2.16811 0.594792,0.51597 -1.880784,2.16811 0.486066,0.42165 -0.405006,0.46688 -0.486067,-0.42165 z"
         style="fill:#ffffff;stroke-width:0.264583"
         id="path909" />
      <path
         d="m 58.814164,191.97672 q -0.455434,-0.48986 -0.610853,-0.99276 -0.16162,-0.49713 -0.02453,-0.97141 0.131324,-0.48047 0.571578,-0.88978 0.266632,-0.2479 0.602009,-0.40942 0.329176,-0.15575 0.707186,-0.17194 0.366045,-0.0166 0.75525,0.15331 0.389204,0.16994 0.769694,0.57919 l 0.616853,0.66348 1.649402,-1.53349 0.559204,0.60147 -4.483148,4.16809 z m 2.199426,-2.16047 q -0.247895,-0.26663 -0.496125,-0.35954 -0.24823,-0.0929 -0.470686,-0.0711 -0.228656,0.0276 -0.41783,0.12257 -0.189173,0.095 -0.306987,0.20449 -0.136417,0.12683 -0.238679,0.30283 -0.108464,0.18176 -0.128273,0.39671 -0.03178,0.21451 0.04947,0.45111 0.06928,0.23617 0.294115,0.478 l 0.645678,0.69448 1.680406,-1.56231 z"
         style="fill:#ffffff;stroke-width:0.264583"
         id="path911" />
      <path
         d="m 61.783882,186.1934 -6.67296,1.80983 -0.03123,-0.0401 3.388202,-6.02318 0.577826,0.74117 -2.784504,4.70442 -0.659666,-0.22647 5.6878,-1.60005 z m -2.792613,0.19105 -1.400317,-1.79618 0.39431,-0.65095 1.712655,2.19682 z"
         style="fill:#ffffff;stroke-width:0.264583"
         id="path913" />
      <path
         d="m 55.190669,176.37754 -1.598908,6.54899 -0.07409,-0.23285 3.859948,-2.40264 0.431394,0.69884 -5.367389,3.31328 -0.02224,-0.036 1.640001,-6.51467 0.06627,0.18795 -3.895971,2.42487 -0.426946,-0.69163 5.374594,-3.31773 z"
         style="fill:#ffffff;stroke-width:0.264583"
         id="path915" />
      <path
         d="m 48.899017,177.96339 -1.77499,-3.65589 0.708329,-0.3439 0.717391,1.47759 4.798354,-2.32968 0.358696,0.7388 -4.798354,2.32967 0.698902,1.43951 z"
         style="fill:#ffffff;stroke-width:0.264583"
         id="path917" />
      <path
         d="m 46.29441,169.28868 q -0.03712,0.35019 -0.01339,0.74041 0.02373,0.39021 0.151923,0.7219 0.177026,0.45805 0.497082,0.65205 0.317003,0.18611 0.672386,0.0488 0.268511,-0.10378 0.3909,-0.35077 0.114493,-0.24394 0.13887,-0.58014 0.02438,-0.33619 0.0238,-0.68997 -0.0011,-0.30819 0.02453,-0.61764 0.02564,-0.30945 0.135817,-0.58803 0.107129,-0.28648 0.337755,-0.51177 0.227574,-0.23318 0.638238,-0.3919 0.450151,-0.17397 0.909841,-0.0884 0.456639,0.0777 0.831633,0.41383 0.374995,0.33615 0.597803,0.91266 0.146504,0.37908 0.193929,0.76014 0.04437,0.37316 0.02305,0.71725 -0.02922,0.34714 -0.09076,0.63416 l -0.731445,-0.10763 q 0.061,-0.24142 0.09275,-0.53507 0.02384,-0.29061 -9.57e-4,-0.58964 -0.0327,-0.29598 -0.130366,-0.5487 -0.103774,-0.26851 -0.299265,-0.4925 -0.206439,-0.22883 -0.478919,-0.32321 -0.27248,-0.0944 -0.612068,0.0369 -0.292203,0.11293 -0.420697,0.34413 -0.139444,0.22636 -0.17603,0.53096 -0.04448,0.30766 -0.04517,0.63469 0.0011,0.30819 -0.01053,0.63038 -0.01953,0.32525 -0.10171,0.62932 -0.09007,0.30712 -0.295749,0.54999 -0.205675,0.24288 -0.576852,0.38633 -0.450151,0.17397 -0.86425,0.0889 -0.425049,-0.0899 -0.76109,-0.3957 -0.343939,-0.30277 -0.548969,-0.78631 -0.213652,-0.55281 -0.241161,-1.02326 -0.03056,-0.47835 0.04173,-0.87844 z"
         style="fill:#ffffff;stroke-width:0.264583"
         id="path919" />
      <path
         d="m 48.113682,165.69125 q 0.399313,-0.11254 0.664311,-0.38954 0.254553,-0.28285 0.344269,-0.6512 0.08972,-0.36834 -0.02282,-0.76765 -0.117126,-0.41562 -0.388274,-0.69106 -0.271147,-0.27544 -0.63364,-0.37561 -0.370642,-0.0979 -0.769955,0.0147 l -3.805695,1.07251 -0.218178,-0.77417 3.830144,-1.07941 q 0.64379,-0.18143 1.209569,-0.0154 0.563483,0.15787 0.966648,0.58963 0.400868,0.42361 0.57541,1.04295 v 0 q 0.174542,0.61935 0.05386,1.18994 -0.120683,0.5706 -0.518811,0.99947 -0.398128,0.42887 -1.041918,0.6103 l -3.830143,1.07941 -0.220474,-0.78233 z"
         style="fill:#ffffff;stroke-width:0.264583"
         id="path921" />
      <path
         d="m 44.39956,158.06859 -0.304578,-2.86118 -2.922816,-0.58688 2.733768,-1.18903 -0.304578,-2.86117 1.860032,2.16344 2.638607,-1.14564 -1.435681,2.44775 1.918805,2.09067 -2.820654,-0.56449 z"
         style="fill:#ffffff;stroke-width:0.264583"
         id="path923" />
      <path
         d="m 47.356775,141.57584 q 0.09268,0.15798 0.204408,0.42731 0.111724,0.26932 0.175839,0.6292 0.0646,0.35142 0.04078,0.7656 -0.04928,0.70954 -0.327456,1.27023 -0.277691,0.55224 -0.723169,0.92522 -0.445479,0.37297 -1.007541,0.56115 -0.570029,0.17924 -1.19553,0.14328 -0.684669,-0.0394 -1.246817,-0.29219 -0.570115,-0.26176 -0.969421,-0.69179 -0.40776,-0.43052 -0.612844,-0.99355 -0.204599,-0.57149 -0.16669,-1.2308 0.03159,-0.54943 0.209499,-0.98867 0.169455,-0.43973 0.390789,-0.74927 l 0.741789,0.3734 q -0.183635,0.24386 -0.356682,0.59858 -0.172562,0.34626 -0.197835,0.7858 -0.02576,0.448 0.128905,0.85548 0.154665,0.40748 0.458371,0.73025 0.303706,0.32277 0.724588,0.52506 0.412915,0.19335 0.903172,0.22154 0.49871,0.0287 0.938547,-0.0987 0.431869,-0.1363 0.761144,-0.40571 0.329761,-0.27787 0.531083,-0.68184 0.201321,-0.40398 0.230968,-0.91959 0.02673,-0.4649 -0.09607,-0.83663 -0.122797,-0.37173 -0.286696,-0.61861 z"
         style="fill:#ffffff;stroke-width:0.264583"
         id="path925" />
      <path
         d="m 41.486408,139.61373 0.09774,-0.78131 6.502522,0.81342 -0.09774,0.78131 z"
         style="fill:#ffffff;stroke-width:0.264583"
         id="path927" />
      <path
         d="m 44.820337,137.73593 0.125923,-0.77727 3.460088,0.56057 -0.125923,0.77726 z m -1.263133,-0.1446 q -0.18387,-0.0298 -0.286217,-0.19218 -0.100993,-0.17075 -0.07256,-0.34626 0.02843,-0.17551 0.175464,-0.28892 0.148384,-0.12177 0.332253,-0.092 0.192227,0.0311 0.294574,0.19353 0.09534,0.15268 0.06691,0.32819 -0.02843,0.17551 -0.178172,0.30564 -0.148384,0.12177 -0.332253,0.092 z"
         style="fill:#ffffff;stroke-width:0.264583"
         id="path929" />
      <path
         d="m 48.919453,133.32642 q 0.132393,0.27087 0.170745,0.61681 0.03835,0.34594 -0.03092,0.6688 -0.120772,0.56292 -0.434865,0.93716 -0.314093,0.37424 -0.762957,0.52906 -0.455365,0.14477 -1.001733,0.0275 -0.546367,-0.11722 -0.898722,-0.4526 -0.350578,-0.34365 -0.478787,-0.79547 -0.134711,-0.46187 -0.03348,-0.93373 0.0888,-0.41391 0.273965,-0.7119 0.186938,-0.30627 0.435347,-0.49544 l 0.414999,0.48737 q -0.147865,0.12414 -0.285104,0.31984 -0.137239,0.1957 -0.195849,0.46889 -0.06394,0.29801 0.03829,0.58839 0.09573,0.28031 0.328664,0.48616 0.234712,0.19756 0.565844,0.2686 0.314575,0.0675 0.619728,-0.0229 0.296874,-0.0922 0.510995,-0.32333 0.205843,-0.23294 0.278662,-0.57235 0.04795,-0.22351 0.0208,-0.41984 -0.02538,-0.20461 -0.109304,-0.37848 z"
         style="fill:#ffffff;stroke-width:0.264583"
         id="path931" />
      <path
         d="m 49.487031,132.4089 -6.298581,-1.80896 0.217355,-0.7568 6.298582,1.80895 z m -1.786797,-2.21329 2.681928,-0.90345 -0.25475,0.88701 -2.148921,0.64251 z m 0.862199,1.38397 -0.74529,-0.13476 -1.05719,-2.51467 0.531965,-0.34933 z"
         style="fill:#ffffff;stroke-width:0.264583"
         id="path933" />
      <path
         d="m 47.07862,123.64473 0.296725,-0.72935 1.443018,0.58707 0.363727,-0.89405 0.572502,0.23292 -0.363727,0.89404 2.658604,1.08161 -0.296724,0.72935 -2.658605,-1.08161 -0.242484,0.59603 -0.572502,-0.23291 0.242485,-0.59603 z"
         style="fill:#ffffff;stroke-width:0.264583"
         id="path935" />
      <path
         d="m 51.047729,122.54665 q -0.472439,-0.22882 -0.746412,-0.63432 -0.270283,-0.41313 -0.299353,-0.9164 -0.02907,-0.50326 0.214507,-1.00618 0.250959,-0.51816 0.660157,-0.79975 0.409199,-0.2816 0.893534,-0.31043 0.484335,-0.0288 0.956775,0.19998 0.472439,0.22882 0.757722,0.6304 0.277664,0.39789 0.306734,0.90115 0.03276,0.49565 -0.218197,1.01381 -0.243578,0.50292 -0.641227,0.79951 -0.401578,0.28528 -0.885675,0.33305 -0.488025,0.0365 -0.998565,-0.21082 z m 0.350843,-0.70497 q 0.304799,0.14762 0.622689,0.13225 0.31027,-0.0191 0.565767,-0.17754 0.259187,-0.1661 0.395738,-0.44804 0.143932,-0.29718 0.109869,-0.5959 -0.03037,-0.30634 -0.211472,-0.55397 -0.18872,-0.25133 -0.49352,-0.39896 -0.304799,-0.14762 -0.611378,-0.13618 -0.3142,0.008 -0.573387,0.17385 -0.263117,0.15479 -0.407049,0.45197 -0.140241,0.28956 -0.102249,0.59959 0.04168,0.30241 0.226712,0.56136 0.1811,0.24764 0.47828,0.39157 z"
         style="fill:#ffffff;stroke-width:0.264583"
         id="path937" />
      <path
         d="m 58.555657,116.13639 q -0.212612,0.32632 -0.452413,0.52376 -0.232708,0.20206 -0.501528,0.31996 -0.264197,0.11081 -0.55462,0.18432 l -0.19732,-0.67425 q 0.372433,-0.0908 0.650176,-0.25343 0.277742,-0.16261 0.471866,-0.46055 0.217234,-0.33341 0.251637,-0.63436 0.04612,-0.30343 -0.07393,-0.55344 -0.112958,-0.24538 -0.368334,-0.41178 l -0.78988,-0.52475 0.164664,0.0264 q 0.221836,0.32644 0.217415,0.7985 -0.01151,0.46745 -0.321188,0.94273 -0.263454,0.40435 -0.69103,0.61081 -0.422953,0.19937 -0.904586,0.17861 -0.484105,-0.0325 -0.923919,-0.31904 -0.461095,-0.30043 -0.67003,-0.73972 -0.216028,-0.44391 -0.19527,-0.92554 0.02076,-0.48164 0.288835,-0.89308 0.25421,-0.39015 0.625356,-0.60307 0.368675,-0.22463 0.71402,-0.21183 l 0.09748,0.11405 -0.521282,-0.4407 0.39287,-0.60297 2.958103,1.92737 q 0.397252,0.25883 0.589527,0.67717 0.192276,0.41833 0.138842,0.91909 -0.05344,0.50076 -0.395463,1.0257 z m -3.607333,-0.91543 q 0.283751,0.18488 0.605663,0.20262 0.321913,0.0177 0.604598,-0.12144 0.287308,-0.14627 0.472188,-0.43002 0.171014,-0.26247 0.212833,-0.52828 0.03935,-0.27752 -0.03137,-0.5257 -0.07781,-0.25281 -0.260741,-0.45284 l -0.581689,-0.379 q -0.254412,-0.0748 -0.507537,-0.0275 -0.260218,0.0427 -0.479382,0.19292 -0.226257,0.14563 -0.388027,0.39391 -0.18488,0.28375 -0.209718,0.60104 -0.02022,0.3102 0.126061,0.59751 0.139182,0.28268 0.437121,0.47681 z"
         style="fill:#ffffff;stroke-width:0.264583"
         id="path939" />
      <path
         d="m 60.061773,111.15983 q -0.36703,0.47608 -0.81842,0.6733 -0.458095,0.19206 -0.931401,0.12651 -0.474841,-0.0774 -0.903982,-0.40827 -0.409026,-0.31533 -0.58404,-0.78167 -0.175015,-0.46634 -0.107365,-0.9701 0.06765,-0.50376 0.398494,-0.9329 0.423893,-0.54984 1.024898,-0.66379 0.601005,-0.11396 1.262473,0.19287 l -0.958135,2.90685 -0.482521,-0.1368 0.763496,-2.40477 -0.01622,0.2013 q -0.28331,-0.0901 -0.588982,-0.0264 -0.312377,0.0585 -0.545001,0.36025 -0.196438,0.25481 -0.22412,0.55419 -0.03439,0.29421 0.0923,0.57362 0.12669,0.27941 0.401609,0.49136 0.288329,0.22228 0.602655,0.27218 0.30762,0.0447 0.595274,-0.0649 0.286118,-0.12152 0.492895,-0.38974 0.139574,-0.18104 0.201757,-0.40037 0.06735,-0.22603 0.07379,-0.45626 l 0.684953,0.0684 q -0.01944,0.31642 -0.133878,0.64514 -0.109269,0.322 -0.300538,0.5701 z"
         style="fill:#ffffff;stroke-width:0.264583"
         id="path941" />
      <path
         d="m 58.16637,105.37011 0.518597,-0.5925 1.172259,1.02604 0.635699,-0.72629 0.465081,0.40707 -0.6357,0.72629 2.159759,1.89037 -0.518597,0.5925 -2.159759,-1.89037 -0.423799,0.48419 -0.465081,-0.40707 0.4238,-0.48419 z"
         style="fill:#ffffff;stroke-width:0.264583"
         id="path943" />
      <path
         d="m 62.833608,99.027731 q 0.491872,-0.45326 0.995452,-0.606451 0.497843,-0.159417 0.971504,-0.02023 0.479887,0.13345 0.887247,0.575512 0.246712,0.267728 0.406745,0.603816 0.154295,0.329863 0.168809,0.707942 0.015,0.36611 -0.156654,0.75456 -0.171657,0.38845 -0.582588,0.76712 l -0.666206,0.61391 1.526168,1.65618 -0.603943,0.55653 -4.148195,-4.50156 z m 2.150703,2.208969 q 0.267728,-0.24671 0.361738,-0.49453 0.09401,-0.24781 0.07314,-0.47036 -0.02661,-0.22878 -0.120721,-0.418371 -0.09411,-0.189591 -0.203128,-0.30789 -0.126224,-0.136977 -0.301769,-0.240017 -0.181283,-0.109267 -0.396141,-0.130029 -0.214369,-0.03272 -0.451327,0.04747 -0.236469,0.06823 -0.479292,0.291995 l -0.697337,0.642602 1.554856,1.6873 z"
         style="fill:#ffffff;stroke-width:0.264583"
         id="path945" />
      <path
         d="m 68.603707,102.02302 -1.780213,-6.680922 0.0402,-0.03105 6.008095,3.414886 -0.743732,0.574533 -4.692025,-2.805345 0.229402,-0.658654 1.574799,5.694842 z m -0.178662,-2.793432 1.802377,-1.392335 0.649191,0.397193 -2.204395,1.702893 z"
         style="fill:#ffffff;stroke-width:0.264583"
         id="path947" />
      <path
         d="m 78.44879,95.473497 -6.541807,-1.628063 0.233187,-0.07306 2.385421,3.870612 -0.700756,0.428276 -3.289338,-5.382095 0.03612,-0.02208 6.507291,1.669004 -0.188234,0.06543 -2.407498,-3.906733 0.693532,-0.423861 3.293753,5.389319 z"
         style="fill:#ffffff;stroke-width:0.264583"
         id="path949" />
      <path
         d="m 76.891112,89.1748 3.663793,-1.758616 0.340732,0.70986 -1.480783,0.710774 2.308183,4.808728 -0.740391,0.355387 -2.308184,-4.808728 -1.442618,0.692455 z"
         style="fill:#ffffff;stroke-width:0.264583"
         id="path951" />
      <path
         d="m 85.577502,86.609043 q -0.350025,-0.03869 -0.740343,-0.01671 -0.390318,0.02198 -0.72258,0.148684 -0.458838,0.174969 -0.654271,0.494152 -0.187523,0.316165 -0.05177,0.67216 0.102569,0.268974 0.349012,0.39247 0.243426,0.115585 0.579507,0.14147 0.33608,0.02589 0.68986,0.0269 0.308191,2.74e-4 0.617521,0.0273 0.309331,0.02702 0.587418,0.138453 0.285998,0.108413 0.510248,0.340047 0.232162,0.228617 0.389031,0.639989 0.171953,0.450927 0.08432,0.910229 -0.07972,0.456285 -0.417554,0.829768 -0.337832,0.373483 -0.915335,0.593704 -0.379728,0.144802 -0.760996,0.190517 -0.373357,0.0427 -0.717348,0.01983 -0.347008,-0.03078 -0.633744,-0.0936 l 0.110902,-0.730955 q 0.241148,0.06209 0.534657,0.09514 0.290492,0.02515 0.589633,0.0017 0.296124,-0.03137 0.549276,-0.127905 0.268974,-0.102568 0.493836,-0.297052 0.229757,-0.205411 0.325364,-0.477465 0.09561,-0.272054 -0.03411,-0.612227 -0.111619,-0.292707 -0.34224,-0.422236 -0.225727,-0.140458 -0.530163,-0.17841 -0.307453,-0.04586 -0.634483,-0.04801 -0.308191,-2.75e-4 -0.630327,-0.01335 -0.325153,-0.02099 -0.62885,-0.104532 -0.306715,-0.09145 -0.548664,-0.298213 -0.24195,-0.206762 -0.383736,-0.578579 -0.171953,-0.450927 -0.08506,-0.864641 0.09179,-0.424641 0.399116,-0.759307 0.30431,-0.342578 0.788758,-0.545436 0.55377,-0.21117 1.024338,-0.236569 0.478478,-0.02842 0.878247,0.04567 z"
         style="fill:#ffffff;stroke-width:0.264583"
         id="path953" />
      <path
         d="m 89.166619,88.444497 q 0.11074,0.399814 0.386548,0.666053 0.281707,0.255819 0.649646,0.347188 0.36794,0.09137 0.767753,-0.01937 0.416133,-0.11526 0.692792,-0.385168 0.276658,-0.269909 0.378446,-0.631948 0.09953,-0.3702 -0.01121,-0.770014 l -1.055422,-3.81047 0.775149,-0.2147 1.062202,3.834948 q 0.178541,0.644598 0.01,1.209627 -0.160401,0.562769 -0.593967,0.963992 -0.425408,0.398963 -1.045527,0.570723 v 0 q -0.62012,0.171761 -1.190167,0.04852 -0.57007,-0.123248 -0.997151,-0.523296 -0.427081,-0.400048 -0.605621,-1.044646 l -1.062202,-3.834949 0.783309,-0.216961 z"
         style="fill:#ffffff;stroke-width:0.264583"
         id="path955" />
      <path
         d="m 96.805902,84.764649 2.862502,-0.291887 0.599826,-2.920185 1.1769,2.739014 2.8625,-0.291887 -2.17167,1.85042 1.13393,2.643662 -2.44137,-1.446522 -2.09915,1.909515 0.576993,-2.818123 z"
         style="fill:#ffffff;stroke-width:0.264583"
         id="path957" />
      <path
         d="m 113.28503,87.794541 q -0.15839,0.09199 -0.4282,0.202523 -0.26982,0.110536 -0.62997,0.173064 -0.3517,0.06305 -0.76577,0.03741 -0.70932,-0.0524 -1.26878,-0.333051 -0.55101,-0.280122 -0.92202,-0.72724 -0.37101,-0.447118 -0.55671,-1.010004 -0.17672,-0.570814 -0.138,-1.19615 0.0424,-0.684489 0.29768,-1.245517 0.26426,-0.568955 0.69605,-0.966363 0.43231,-0.405858 0.99624,-0.608459 0.57239,-0.202079 1.23152,-0.161264 0.54929,0.03401 0.98774,0.213854 0.43898,0.171391 0.74754,0.394087 l -0.37666,0.740136 q -0.24305,-0.184707 -0.597,-0.359316 -0.3455,-0.174086 -0.78493,-0.201296 -0.44787,-0.02773 -0.85603,0.125134 -0.40817,0.152866 -0.73227,0.455147 -0.3241,0.302281 -0.52825,0.722267 -0.19517,0.412059 -0.22552,0.902188 -0.0309,0.498578 0.0945,0.938972 0.1344,0.432466 0.40235,0.762925 0.27641,0.330982 0.6795,0.534082 0.40308,0.2031 0.91856,0.235019 0.46478,0.02878 0.83704,-0.09238 0.37227,-0.121158 0.61987,-0.283967 z"
         style="fill:#ffffff;stroke-width:0.264583"
         id="path959" />
      <path
         d="m 115.27345,81.933014 0.78087,0.101215 -0.84236,6.498837 -0.78087,-0.101215 z"
         style="fill:#ffffff;stroke-width:0.264583"
         id="path961" />
      <path
         d="m 117.13633,85.275267 0.77669,0.129395 -0.57601,3.457549 -0.7767,-0.129395 z m 0.15024,-1.262474 q 0.0306,-0.183735 0.19345,-0.285355 0.1712,-0.10023 0.34659,-0.07101 0.17538,0.02922 0.28813,0.176754 0.12111,0.148926 0.0905,0.33266 -0.032,0.192086 -0.19485,0.293707 -0.1531,0.09466 -0.32848,0.06544 -0.17539,-0.02922 -0.30485,-0.179535 -0.1211,-0.148927 -0.0905,-0.332661 z"
         style="fill:#ffffff;stroke-width:0.264583"
         id="path963" />
      <path
         d="m 121.52752,89.394097 q -0.27146,0.131177 -0.61757,0.167978 -0.34611,0.0368 -0.66865,-0.03391 -0.56237,-0.123294 -0.9352,-0.439061 -0.37283,-0.315767 -0.52564,-0.76532 -0.14272,-0.45601 -0.0231,-1.001846 0.11967,-0.545837 0.45662,-0.896685 0.34522,-0.349034 0.7976,-0.475217 0.46247,-0.132639 0.93387,-0.02929 0.41352,0.09066 0.71067,0.277153 0.30543,0.188309 0.49348,0.437563 l -0.48922,0.41281 q -0.12348,-0.14842 -0.31856,-0.286534 -0.19509,-0.138115 -0.468,-0.197948 -0.29773,-0.06527 -0.58856,0.03565 -0.28074,0.09447 -0.48763,0.326481 -0.19861,0.233825 -0.27114,0.564635 -0.0689,0.314269 0.0201,0.619824 0.0908,0.297285 0.32104,0.51244 0.23202,0.206885 0.5711,0.281224 0.22329,0.04896 0.41974,0.02268 0.20472,-0.02446 0.37897,-0.107607 z"
         style="fill:#ffffff;stroke-width:0.264583"
         id="path965" />
      <path
         d="m 122.44258,89.965804 1.83722,-6.290396 0.75582,0.220751 -1.83722,6.290396 z m 2.22129,-1.776841 0.8914,2.685957 -0.88586,-0.25873 -0.63285,-2.151784 z m -1.38783,0.855975 0.13811,-0.744677 2.51939,-1.045888 0.34694,0.533528 z"
         style="fill:#ffffff;stroke-width:0.264583"
         id="path967" />
      <path
         d="m 131.21745,87.596756 0.72801,0.299992 -0.59353,1.440372 0.8924,0.367732 -0.23547,0.571452 -0.89241,-0.367733 -1.09352,2.653728 -0.72801,-0.299993 1.09352,-2.653727 -0.59494,-0.245155 0.23548,-0.571451 0.59494,0.245154 z"
         style="fill:#ffffff;stroke-width:0.264583"
         id="path969" />
      <path
         d="m 132.2977,91.570744 q 0.23092,-0.471411 0.63765,-0.743567 0.41433,-0.268431 0.91773,-0.29525 0.50339,-0.02682 1.00521,0.219007 0.51703,0.253274 0.79679,0.663728 0.27976,0.410455 0.30642,0.894914 0.0267,0.484459 -0.20426,0.95587 -0.23092,0.471411 -0.63377,0.754895 -0.39913,0.275881 -0.90252,0.302699 -0.49579,0.03054 -1.01282,-0.222731 -0.50182,-0.245825 -0.79664,-0.644797 -0.28348,-0.402851 -0.32908,-0.887156 -0.0343,-0.488184 0.21529,-0.997612 z m 0.70339,0.353993 q -0.14899,0.304136 -0.13504,0.622092 0.0177,0.310352 0.17501,0.566555 0.16494,0.259928 0.44626,0.397739 0.29653,0.14526 0.5954,0.112534 0.30648,-0.029 0.55492,-0.208992 0.25217,-0.187594 0.40116,-0.49173 0.14898,-0.304136 0.13891,-0.610763 -0.006,-0.314231 -0.17128,-0.574159 -0.15361,-0.263806 -0.45014,-0.409066 -0.28893,-0.141536 -0.59913,-0.104931 -0.30259,0.04033 -0.56237,0.224198 -0.24844,0.179991 -0.3937,0.476523 z"
         style="fill:#ffffff;stroke-width:0.264583"
         id="path971" />
      <path
         d="m 138.67432,99.107188 q -0.32536,-0.214062 -0.52174,-0.45474 -0.20102,-0.233604 -0.31772,-0.502946 -0.10964,-0.264688 -0.18185,-0.555434 l 0.67512,-0.194318 q 0.0892,0.372833 0.25053,0.651296 0.16138,0.278463 0.45845,0.473911 0.33244,0.218715 0.63323,0.254457 0.30322,0.04747 0.55376,-0.07147 0.24589,-0.111865 0.41342,-0.366498 l 0.52826,-0.787538 -0.0272,0.164545 q -0.32741,0.220381 -0.79946,0.21386 -0.46739,-0.01359 -0.94129,-0.32538 -0.40316,-0.26525 -0.60772,-0.69374 -0.19749,-0.423836 -0.17459,-0.905372 0.0346,-0.483955 0.32315,-0.92249 0.30248,-0.459754 0.74269,-0.666732 0.44487,-0.214052 0.92641,-0.19115 0.48153,0.0229 0.89178,0.292805 0.38902,0.255943 0.60028,0.628034 0.22299,0.36967 0.20865,0.714954 l -0.11448,0.09698 0.44302,-0.519316 0.60121,0.395549 -1.94051,2.949499 q -0.2606,0.396095 -0.67978,0.586508 -0.41919,0.190412 -0.91971,0.134751 -0.50052,-0.05566 -1.02393,-0.400022 z m 0.93148,-3.603225 q -0.18614,0.282925 -0.20532,0.604756 -0.0192,0.32183 0.11875,0.605132 0.14499,0.287956 0.42792,0.474097 0.26171,0.17218 0.52732,0.215181 0.27735,0.04058 0.52584,-0.02903 0.25315,-0.07668 0.45399,-0.258725 l 0.38159,-0.579997 q 0.076,-0.254076 0.0298,-0.507409 -0.0415,-0.260406 -0.19079,-0.480235 -0.14462,-0.226903 -0.39218,-0.389776 -0.28293,-0.186141 -0.6001,-0.21239 -0.31011,-0.0216 -0.59806,0.1234 -0.28331,0.137924 -0.47875,0.434996 z"
         style="fill:#ffffff;stroke-width:0.264583"
         id="path973" />
      <path
         d="m 143.64419,100.63541 q -0.47445,-0.36913 -0.66967,-0.821394 -0.19003,-0.458943 -0.12237,-0.931953 0.0795,-0.474493 0.41227,-0.902162 0.31715,-0.407623 0.78426,-0.580567 0.46711,-0.172944 0.97056,-0.10306 0.50346,0.06988 0.93113,0.402629 0.54795,0.426328 0.65924,1.027832 0.11129,0.601505 -0.19848,1.261605 l -2.90257,-0.971021 0.13894,-0.481909 2.40137,0.774156 -0.20124,-0.01711 q 0.0914,-0.282906 0.0291,-0.588858 -0.0571,-0.312634 -0.35783,-0.546594 -0.25393,-0.197567 -0.55319,-0.226576 -0.29405,-0.03569 -0.57402,0.08976 -0.27997,0.125449 -0.49314,0.399425 -0.22356,0.287341 -0.27485,0.601442 -0.0461,0.307419 0.0623,0.595556 0.12025,0.286654 0.38754,0.494619 0.18043,0.14037 0.39948,0.20353 0.22573,0.0683 0.45593,0.0758 l -0.0714,0.68465 q -0.31634,-0.0208 -0.64454,-0.13674 -0.32151,-0.1107 -0.56876,-0.30307 z"
         style="fill:#ffffff;stroke-width:0.264583"
         id="path975" />
      <path
         d="m 149.44223,98.76569 0.5902,0.521217 -1.03122,1.167703 0.72347,0.63891 -0.40913,0.46327 -0.72347,-0.63891 -1.89992,2.15137 -0.59019,-0.52122 1.89991,-2.15136 -0.48231,-0.425945 0.40913,-0.463273 0.48231,0.425941 z"
         style="fill:#ffffff;stroke-width:0.264583"
         id="path977" />
      <path
         d="m 155.7639,103.46097 q 0.45108,0.49387 0.60204,0.99812 0.15721,0.49855 0.0159,0.97159 -0.13557,0.47929 -0.57943,0.88469 -0.26882,0.24552 -0.60561,0.40406 -0.33055,0.15284 -0.70869,0.16568 -0.36617,0.0134 -0.75386,-0.16 -0.38768,-0.17337 -0.76453,-0.58598 l -0.61096,-0.66892 -1.66291,1.51882 -0.55386,-0.6064 4.51989,-4.12822 z m -2.21848,2.1409 q 0.24553,0.26881 0.49293,0.36392 0.24739,0.0951 0.47003,0.0752 0.2289,-0.0256 0.4189,-0.11886 0.19001,-0.0933 0.30879,-0.20177 0.13753,-0.12561 0.24135,-0.3007 0.11007,-0.1808 0.13178,-0.39556 0.0337,-0.21422 -0.0455,-0.45153 -0.0672,-0.23677 -0.28987,-0.48058 l -0.6395,-0.70018 -1.69418,1.54737 z"
         style="fill:#ffffff;stroke-width:0.264583"
         id="path979" />
      <path
         d="m 152.74309,109.21775 6.68876,-1.75055 0.0309,0.0403 -3.44151,5.99288 -0.57123,-0.74627 2.82613,-4.67954 0.65763,0.23233 -5.70177,1.54951 z m 2.7942,-0.16627 1.38433,1.80854 -0.40007,0.64742 -1.6931,-2.21192 z"
         style="fill:#ffffff;stroke-width:0.264583"
         id="path981" />
      <path
         d="m 159.24878,119.09183 1.65719,-6.53448 0.072,0.23351 -3.8812,2.36815 -0.42515,-0.70266 5.39669,-3.26532 0.0219,0.0362 -1.69798,6.49979 -0.0646,-0.18853 3.91742,-2.39007 0.42077,0.69542 -5.40394,3.26971 z"
         style="fill:#ffffff;stroke-width:0.264583"
         id="path983" />
      <path
         d="m 165.55436,117.56231 1.74221,3.67162 -0.71138,0.33756 -0.70414,-1.48395 -4.81901,2.28663 -0.35207,-0.74197 4.81901,-2.28664 -0.68599,-1.4457 z"
         style="fill:#ffffff;stroke-width:0.264583"
         id="path985" />
      <path
         d="m 168.0812,126.26016 q 0.0403,-0.34985 0.02,-0.74026 -0.0202,-0.39041 -0.14544,-0.72324 -0.17291,-0.45962 -0.49121,-0.65648 -0.31532,-0.18894 -0.67192,-0.0548 -0.26943,0.10136 -0.39403,0.34725 -0.11668,0.2429 -0.14407,0.57886 -0.0274,0.33596 -0.03,0.68974 -0.002,0.30818 -0.0301,0.61739 -0.0284,0.30921 -0.14109,0.58679 -0.1097,0.28551 -0.34234,0.50872 -0.22965,0.23113 -0.64172,0.38615 -0.4517,0.16993 -0.9106,0.0802 -0.45592,-0.0818 -0.82789,-0.42128 -0.37196,-0.3395 -0.58959,-0.91799 -0.1431,-0.38037 -0.1871,-0.76184 -0.041,-0.37354 -0.0166,-0.71743 0.0323,-0.34687 0.0964,-0.63332 l 0.73045,0.11418 q -0.0632,0.24087 -0.0975,0.53423 -0.0265,0.29037 -0.004,0.58962 0.03,0.29626 0.12544,0.54984 0.10136,0.26943 0.29483,0.49517 0.20438,0.23067 0.476,0.3275 0.27163,0.0968 0.61238,-0.0314 0.2932,-0.11031 0.42377,-0.34035 0.14146,-0.22509 0.18078,-0.52935 0.0472,-0.30725 0.0509,-0.63426 0.002,-0.30819 0.0162,-0.63026 0.0225,-0.32506 0.10735,-0.62838 0.0928,-0.3063 0.30067,-0.54732 0.20785,-0.24102 0.5803,-0.38113 0.45169,-0.16993 0.86501,-0.0812 0.42422,0.0937 0.75751,0.40252 0.34121,0.30584 0.54189,0.79119 0.20868,0.55472 0.23197,1.02539 0.0263,0.4786 -0.0496,0.87804 z"
         style="fill:#ffffff;stroke-width:0.264583"
         id="path987" />
      <path
         d="m 166.2297,129.84115 q -0.40031,0.10894 -0.66778,0.38355 -0.25708,0.28056 -0.3501,0.64808 -0.093,0.36753 0.0159,0.76783 0.11339,0.41665 0.38206,0.69452 0.26866,0.27787 0.63024,0.38128 0.36975,0.10119 0.77006,-0.008 l 3.81517,-1.03831 0.21121,0.77611 -3.83967,1.04498 q -0.6454,0.17564 -1.20966,0.005 -0.56205,-0.16293 -0.96132,-0.59829 -0.39705,-0.4272 -0.56602,-1.04808 v 0 q -0.16898,-0.62088 -0.0432,-1.19037 0.1258,-0.56949 0.52776,-0.99477 0.40196,-0.42528 1.04736,-0.60093 l 3.83968,-1.04497 0.21344,0.78427 z"
         style="fill:#ffffff;stroke-width:0.264583"
         id="path989" />
      <path
         d="m 169.87513,137.49641 0.27919,2.86376 2.91749,0.61278 -2.7442,1.16473 0.27919,2.86377 -1.84077,-2.17985 -2.64867,1.12219 1.45734,-2.43493 -1.90019,-2.1076 2.81554,0.58949 z"
         style="fill:#ffffff;stroke-width:0.264583"
         id="path991" />
    </g>
  </g>
</svg>
