<?xml version="1.0" encoding="UTF-8" standalone="no"?>
<svg
   xmlns:dc="http://purl.org/dc/elements/1.1/"
   xmlns:cc="http://creativecommons.org/ns#"
   xmlns:rdf="http://www.w3.org/1999/02/22-rdf-syntax-ns#"
   xmlns:svg="http://www.w3.org/2000/svg"
   xmlns="http://www.w3.org/2000/svg"
   xmlns:sodipodi="http://sodipodi.sourceforge.net/DTD/sodipodi-0.dtd"
   xmlns:inkscape="http://www.inkscape.org/namespaces/inkscape"
   width="480"
   height="480"
   viewBox="0 0 126.99999 127"
   version="1.1"
   id="svg8"
   inkscape:version="1.0.1 (3bc2e813f5, 2020-09-07)"
   sodipodi:docname="confirm.svg"
   inkscape:export-filename="X:\source\draft\pantsu_coin\click.png"
   inkscape:export-xdpi="96"
   inkscape:export-ydpi="96">
  <defs
     id="defs2" />
  <sodipodi:namedview
     id="base"
     pagecolor="#ffffff"
     bordercolor="#666666"
     borderopacity="1.0"
     inkscape:pageopacity="0.0"
     inkscape:pageshadow="2"
     inkscape:zoom="0.70710678"
     inkscape:cx="140.68283"
     inkscape:cy="106.76764"
     inkscape:document-units="px"
     inkscape:current-layer="layer1"
     inkscape:document-rotation="0"
     showgrid="false"
     inkscape:window-width="2560"
     inkscape:window-height="1356"
     inkscape:window-x="-8"
     inkscape:window-y="-8"
     inkscape:window-maximized="1"
     units="px" />
  <metadata
     id="metadata5">
    <rdf:RDF>
      <cc:Work
         rdf:about="">
        <dc:format>image/svg+xml</dc:format>
        <dc:type
           rdf:resource="http://purl.org/dc/dcmitype/StillImage" />
        <dc:title></dc:title>
      </cc:Work>
    </rdf:RDF>
  </metadata>
  <g
     inkscape:label="Layer 1"
     inkscape:groupmode="layer"
     id="layer1">
    <g
       aria-label="Waiting for confirmation ●●● Waiting for confirmation ●●● Waiting for confirmation ●●●"
       transform="matrix(0.5093852,-0.88575951,0.88575951,0.5093852,-162.88081,36.447907)"
       id="text849"
       style="font-size:8.46667px;line-height:1.25;font-family:'Josefin Sans';-inkscape-font-specification:'Josefin Sans';letter-spacing:0px;word-spacing:0px;fill:#ffffff;stroke-width:0.264583">
      <path
         d="m 148.11053,205.96222 -0.0665,0.94593 -4.77851,1.32749 0.0692,-0.13942 3.04001,1.42753 -1.13313,0.30225 -3.65338,-1.87807 z m -0.20612,2.9307 -0.0576,0.81924 -4.72044,1.46738 0.0457,-0.16654 4.44966,1.90012 -0.0612,0.86992 -6.1741,-2.8447 z"
         id="path904" />
      <path
         d="m 140.95882,214.99428 q 0.0911,-0.48253 0.37457,-0.84258 0.28186,-0.35173 0.7252,-0.50924 0.45009,-0.14763 1.03245,-0.0376 0.57405,0.10844 0.94445,0.42829 0.37873,0.32141 0.52792,0.76318 0.14762,0.45009 0.0565,0.93262 -0.0911,0.48254 -0.37864,0.77289 -0.27917,0.29192 -0.61168,0.41005 l -0.12368,-0.0751 0.71797,0.21317 -0.13515,0.71548 -3.44429,-0.65062 0.14616,-0.77372 0.89851,0.16973 -0.21539,0.0455 q -0.0769,-0.049 -0.18802,-0.19062 -0.10436,-0.13172 -0.20133,-0.34822 -0.0985,-0.20817 -0.14448,-0.46673 -0.0376,-0.25698 0.019,-0.55648 z m 0.60132,0.329 q -0.055,0.29118 0.009,0.54456 0.0642,0.25338 0.22721,0.43927 0.16981,0.19579 0.43336,0.30589 l 0.67388,0.1273 q 0.26216,-0.0194 0.47662,-0.15123 0.22278,-0.13024 0.36662,-0.34433 0.15215,-0.21252 0.20559,-0.49538 0.0581,-0.30783 -0.0429,-0.59402 -0.10103,-0.28619 -0.3374,-0.49455 -0.23793,-0.20005 -0.59567,-0.26762 -0.33279,-0.0629 -0.63719,0.0433 -0.3044,0.10621 -0.51277,0.34258 -0.20836,0.23636 -0.2665,0.54419 z"
         id="path906" />
      <path
         d="m 143.69627,219.31109 -0.19666,0.76244 -3.39411,-0.87547 0.19666,-0.76245 z m 1.24455,0.25981 q 0.18037,0.0465 0.26739,0.21761 0.0849,0.17929 0.0405,0.35146 -0.0444,0.17216 -0.20121,0.27162 -0.15893,0.10765 -0.33929,0.0611 -0.18856,-0.0486 -0.27559,-0.21973 -0.0809,-0.16078 -0.0365,-0.33295 0.0444,-0.17216 0.20545,-0.28801 0.15892,-0.10765 0.33928,-0.0611 z"
         id="path908" />
      <path
         d="m 144.46323,222.32954 -0.23307,0.75212 -1.48805,-0.46112 -0.2857,0.92195 -0.59037,-0.18295 0.28569,-0.92195 -2.74158,-0.84957 0.23307,-0.75211 2.74158,0.84957 0.19047,-0.61464 0.59037,0.18295 -0.19047,0.61463 z"
         id="path910" />
      <path
         d="m 142.09665,224.59954 -0.26894,0.74004 -3.29441,-1.19719 0.26893,-0.74005 z m 1.21387,0.37806 q 0.17506,0.0636 0.24527,0.24227 0.0673,0.18661 0.007,0.35372 -0.0607,0.16711 -0.22636,0.25105 -0.16852,0.0919 -0.34359,0.0283 -0.18302,-0.0665 -0.25322,-0.24517 -0.0651,-0.1678 -0.004,-0.33491 0.0607,-0.16711 0.23214,-0.26697 0.16852,-0.0919 0.34359,-0.0283 z"
         id="path912" />
      <path
         d="m 140.99513,227.47018 -0.81076,-0.28018 0.1377,0.0232 q 0.28914,0.31105 0.34614,0.7517 0.0648,0.44403 -0.13516,0.90181 -0.19992,0.45778 -0.59687,0.62627 -0.39257,0.17963 -0.8227,0.001 l -2.37425,-1.0369 0.31852,-0.72935 2.11821,0.92508 q 0.26719,0.10746 0.49452,0.0312 0.23169,-0.0651 0.36384,-0.36772 0.12199,-0.27932 0.0651,-0.5721 -0.0569,-0.29279 -0.27087,-0.54329 -0.21735,-0.24274 -0.57426,-0.39862 l -1.50525,-0.65738 0.31514,-0.72159 3.21223,1.40287 z"
         id="path914" />
      <path
         d="m 133.80895,230.33616 q 0.18729,-0.34148 0.41145,-0.55651 0.21674,-0.21911 0.47586,-0.35703 0.25505,-0.1305 0.53907,-0.22579 l 0.24781,0.65737 q -0.36448,0.11876 -0.62911,0.30194 -0.26463,0.18318 -0.43564,0.49496 -0.19136,0.3489 -0.20287,0.6516 -0.023,0.30604 0.11563,0.54624 0.13122,0.23613 0.39846,0.38271 l 0.82736,0.46343 -0.1662,-0.0139 q -0.24592,-0.3087 -0.27726,-0.77974 -0.0239,-0.46698 0.24887,-0.96435 0.23208,-0.42313 0.64279,-0.66139 0.40664,-0.23082 0.88846,-0.2466 0.48518,-0.004 0.94543,0.24815 0.48252,0.26465 0.72412,0.68686 0.24903,0.42628 0.26481,0.9081 0.0158,0.48182 -0.22038,0.91238 -0.22393,0.40829 -0.57788,0.6487 -0.35061,0.2519 -0.69593,0.26529 l -0.10584,-0.10633 0.55316,0.39995 -0.34608,0.631 -3.09557,-1.69782 q -0.41571,-0.22801 -0.63912,-0.63058 -0.2234,-0.40256 -0.20804,-0.90594 0.0153,-0.50337 0.31664,-1.0527 z m 3.66631,0.63962 q -0.29694,-0.16286 -0.61927,-0.15618 -0.32234,0.007 -0.59367,0.16688 -0.2754,0.16761 -0.43826,0.46455 -0.15065,0.27467 -0.17222,0.54288 -0.0182,0.2797 0.0711,0.52181 0.0967,0.24619 0.29429,0.43179 l 0.60872,0.33387 q 0.25935,0.0553 0.50816,-0.011 0.25624,-0.0623 0.4634,-0.22867 0.21458,-0.16235 0.35708,-0.42217 0.16286,-0.29693 0.1636,-0.6152 -0.003,-0.31083 -0.17095,-0.58624 -0.16019,-0.27133 -0.47197,-0.44233 z"
         id="path916" />
      <path
         d="m 131.98209,236.55213 2.27259,1.63986 0.35176,-0.48747 0.56986,0.41121 -0.35175,0.48747 1.20152,0.867 q 0.61792,0.44588 0.74931,0.95832 0.12643,0.51931 -0.26495,1.06171 -0.10404,0.14418 -0.2691,0.2861 -0.17,0.14879 -0.36025,0.20988 l -0.2668,-0.59971 q 0.10638,-0.0172 0.18148,-0.0779 0.082,-0.0557 0.13645,-0.13123 0.18331,-0.25404 0.11075,-0.51521 -0.0726,-0.26118 -0.48451,-0.55843 l -1.19465,-0.86205 -0.64901,0.89943 -0.56987,-0.41121 0.64901,-0.89942 -2.27259,-1.63987 z"
         id="path918" />
      <path
         d="m 131.93231,239.66848 q 0.4032,0.33613 0.57113,0.7958 0.16252,0.46617 0.0692,0.96156 -0.0933,0.49539 -0.45115,0.9246 -0.36867,0.44222 -0.83376,0.61666 -0.46509,0.17444 -0.94205,0.0855 -0.47696,-0.089 -0.88016,-0.42512 -0.4032,-0.33614 -0.58306,-0.79473 -0.17335,-0.45316 -0.08,-0.94855 0.0879,-0.48889 0.45658,-0.93111 0.35782,-0.42921 0.81532,-0.62099 0.45859,-0.17986 0.93989,-0.1093 0.48239,0.0825 0.9181,0.44573 z m -0.51071,0.59937 q -0.26012,-0.21686 -0.57232,-0.27871 -0.30569,-0.0564 -0.59189,0.0357 -0.29163,0.0986 -0.49223,0.33921 -0.21144,0.25362 -0.25052,0.55173 -0.0445,0.3046 0.0714,0.58865 0.12243,0.28946 0.38256,0.50632 0.26013,0.21687 0.5604,0.2798 0.30677,0.0684 0.5984,-0.0302 0.29271,-0.0867 0.50415,-0.34029 0.20602,-0.24712 0.24402,-0.55715 0.0326,-0.30353 -0.0844,-0.5995 -0.11593,-0.28404 -0.36956,-0.49548 z"
         id="path920" />
      <path
         d="m 129.39219,245.19131 -0.78493,-0.64958 0.12697,0.0634 q 0.1379,0.3207 0.1204,0.65636 -0.0173,0.34763 -0.1256,0.63115 -0.10809,0.29549 -0.25486,0.44801 l -0.53191,-0.57061 q 0.29422,-0.26913 0.37745,-0.61204 0.0774,-0.33681 -0.0129,-0.6704 -0.0961,-0.32749 -0.34015,-0.56232 l -1.15304,-1.10956 0.5401,-0.56127 2.52572,2.43047 z"
         id="path922" />
      <path
         d="m 121.15728,248.38867 q 0.0639,-0.29464 0.24806,-0.58997 0.18419,-0.29533 0.43857,-0.50587 0.44352,-0.36709 0.92192,-0.4663 0.4784,-0.0992 0.92667,0.0573 0.44715,0.16844 0.80345,0.59892 0.35629,0.43048 0.42514,0.91203 0.0623,0.48695 -0.11692,0.92105 -0.18036,0.44603 -0.55214,0.75374 -0.32612,0.26992 -0.65607,0.38914 -0.33647,0.12462 -0.64866,0.11924 l -0.0239,-0.63967 q 0.19299,-0.006 0.42195,-0.0745 0.22897,-0.0686 0.44421,-0.24676 0.2348,-0.19434 0.33443,-0.48562 0.0985,-0.27935 0.0431,-0.58524 -0.0619,-0.30049 -0.2778,-0.56139 -0.20514,-0.24785 -0.50069,-0.36592 -0.29015,-0.11155 -0.60144,-0.0627 -0.30588,0.0553 -0.5733,0.27668 -0.17611,0.14575 -0.27641,0.3167 -0.10683,0.17634 -0.14866,0.36482 z"
         id="path924" />
      <path
         d="m 121.42255,250.04415 q 0.30235,0.42911 0.34548,0.91659 0.0362,0.49236 -0.18227,0.94666 -0.21848,0.4543 -0.67527,0.77616 -0.47064,0.33162 -0.96504,0.37962 -0.49441,0.048 -0.93203,-0.16151 -0.43763,-0.20951 -0.73999,-0.63862 -0.30236,-0.42911 -0.35728,-0.91863 -0.05,-0.48261 0.16843,-0.93691 0.21156,-0.44942 0.68219,-0.78104 0.4568,-0.32187 0.94837,-0.38858 0.48952,-0.0549 0.93612,0.13791 0.44455,0.20463 0.77129,0.66835 z m -0.64855,0.44661 q -0.19506,-0.27685 -0.48058,-0.41746 -0.28063,-0.1337 -0.58092,-0.1189 -0.30722,0.0197 -0.5633,0.20012 -0.26992,0.19019 -0.3849,0.46799 -0.1219,0.28268 -0.0835,0.58706 0.0433,0.31131 0.23834,0.58815 0.19507,0.27685 0.46878,0.41542 0.2786,0.14549 0.58581,0.12581 0.30517,-0.008 0.57509,-0.19807 0.263,-0.18531 0.38002,-0.47491 0.1101,-0.28473 0.0738,-0.60091 -0.0384,-0.30438 -0.22859,-0.5743 z"
         id="path926" />
      <path
         d="m 117.49978,254.75216 -0.48966,-0.70432 0.0975,0.0999 q 0.0501,0.42171 -0.16362,0.81123 -0.20949,0.39683 -0.64088,0.64871 -0.43138,0.25187 -0.85133,0.15392 -0.42299,-0.0864 -0.66509,-0.48425 l -1.30633,-2.23735 0.6873,-0.40129 1.16544,1.99607 q 0.15246,0.24433 0.38103,0.31676 0.22553,0.084 0.51068,-0.0825 0.26322,-0.15368 0.38988,-0.42372 0.12665,-0.27003 0.10153,-0.59851 -0.0324,-0.32421 -0.2288,-0.66055 l -0.82819,-1.41845 0.67998,-0.39702 1.76738,3.02701 z"
         id="path928" />
      <path
         d="m 112.00695,253.80671 1.19387,2.53545 0.54386,-0.25609 0.29937,0.63578 -0.54386,0.25609 0.6312,1.34049 q 0.32462,0.68939 0.19135,1.20135 -0.14092,0.51556 -0.74606,0.8005 -0.16086,0.0757 -0.374,0.11996 -0.2208,0.0478 -0.41684,0.009 l 0.0571,-0.65389 q 0.1014,0.0365 0.19648,0.0198 0.091,-0.005 0.18295,-0.0487 0.28342,-0.13345 0.34645,-0.39709 0.063,-0.26364 -0.15339,-0.72323 l -0.62759,-1.33284 -0.90388,0.42562 -0.29937,-0.63578 0.90387,-0.42561 -1.19387,-2.53545 z m -0.73581,4.22083 -0.71237,0.33544 -1.49325,-3.17123 0.71238,-0.33544 z m 0.59465,1.12374 q 0.0794,0.16852 -0.008,0.34068 -0.0838,0.17983 -0.24463,0.25557 -0.1532,0.0721 -0.33752,0.0186 -0.18072,-0.0459 -0.26368,-0.22211 -0.083,-0.17617 -0.007,-0.35239 0.0797,-0.16856 0.23292,-0.24069 0.16086,-0.0757 0.35284,-0.0258 0.19199,0.05 0.27494,0.22615 z"
         id="path930" />
      <path
         d="m 108.38577,259.22497 -0.43408,-0.92176 0.0879,0.11141 q -0.0116,0.3489 -0.17022,0.64524 -0.1635,0.30727 -0.38213,0.51778 -0.22351,0.22145 -0.42122,0.29705 l -0.23869,-0.74267 q 0.38076,-0.11841 0.60194,-0.39335 0.21328,-0.27192 0.2735,-0.61222 0.0523,-0.33726 -0.0686,-0.65359 l -0.57158,-1.49464 0.72755,-0.27823 1.25203,3.27397 z"
         id="path932" />
      <path
         d="m 105.08256,260.42727 -0.27613,-0.7405 0.0508,0.0562 q -0.0811,0.43555 -0.36245,0.75103 -0.28955,0.31775 -0.7382,0.44245 -0.28551,0.0794 -0.53071,0.0508 -0.24519,-0.0285 -0.43148,-0.16128 -0.19218,-0.12233 -0.30099,-0.35572 l 0.034,-0.0358 q -0.0937,0.4215 -0.37968,0.72067 -0.29181,0.30959 -0.67521,0.41615 -0.49761,0.13831 -0.86247,-0.0678 -0.37076,-0.19573 -0.50362,-0.64212 l -0.693815,-2.49617 0.758645,-0.21087 0.61898,2.22698 q 0.0807,0.25877 0.25069,0.39607 0.16409,0.14772 0.46229,0.0824 0.29367,-0.0816 0.48035,-0.32685 0.17853,-0.24294 0.22969,-0.56473 0.0534,-0.31363 -0.0291,-0.6422 l -0.44667,-1.60701 0.75864,-0.21086 0.61899,2.22697 q 0.0807,0.25877 0.25885,0.3938 0.17224,0.14545 0.47044,0.0801 0.30183,-0.0839 0.48035,-0.32684 0.17853,-0.24295 0.22969,-0.56473 0.043,-0.31952 -0.0477,-0.64582 l -0.4444,-1.59886 0.75864,-0.21086 0.93868,3.37717 z"
         id="path934" />
      <path
         d="m 96.60582,258.7544 q 0.484739,-0.0786 0.919773,0.0653 0.426676,0.14526 0.725719,0.50849 0.292041,0.37294 0.386878,0.95797 0.09348,0.57667 -0.08115,1.03384 -0.173273,0.46553 -0.537857,0.75621 -0.372941,0.29204 -0.85768,0.37062 -0.484739,0.0786 -0.855621,-0.0929 -0.369528,-0.1631 -0.593811,-0.43552 l 0.02847,-0.14185 0.04401,0.74766 -0.718751,0.11651 -0.560894,-3.46003 0.777254,-0.126 0.14632,0.90262 -0.116091,-0.18704 q 0.01988,-0.089 0.115211,-0.24168 0.08833,-0.14298 0.258873,-0.30786 0.16219,-0.16353 0.389656,-0.29475 0.228821,-0.12286 0.529694,-0.17164 z m -0.104618,0.67741 q -0.292515,0.0474 -0.508915,0.194 -0.216399,0.14658 -0.335674,0.36319 -0.126279,0.22632 -0.140073,0.51161 l 0.109741,0.67696 q 0.107505,0.23989 0.304462,0.39666 0.198312,0.16513 0.448582,0.22748 0.251624,0.0707 0.535782,0.0247 0.30923,-0.0501 0.543928,-0.24256 0.234698,-0.19244 0.350138,-0.48562 0.107082,-0.29183 0.04882,-0.6512 -0.05419,-0.33431 -0.257696,-0.58437 -0.203503,-0.25005 -0.496687,-0.36549 -0.293183,-0.11544 -0.602413,-0.0653 z"
         id="path936" />
      <path
         d="m 93.24924,264.37028 -0.784404,0.0686 -0.135768,-1.55194 -0.961528,0.0841 -0.05387,-0.61572 0.961529,-0.0841 -0.250138,-2.85928 0.784405,-0.0686 0.250137,2.85928 0.641019,-0.0561 0.05386,0.61572 -0.641019,0.0561 z"
         id="path938" />
      <path
         d="m 90.255884,263.03822 -0.786771,0.0315 -0.140193,-3.5024 0.78677,-0.0315 z m 0.110014,1.26661 q 0.0074,0.18612 -0.131289,0.31877 -0.147199,0.133 -0.324857,0.14011 -0.177657,0.007 -0.318095,-0.11437 -0.148898,-0.12114 -0.156348,-0.30726 -0.0078,-0.19458 0.13095,-0.32723 0.130618,-0.12386 0.308276,-0.13097 0.177657,-0.007 0.335015,0.11369 0.148898,0.12114 0.156348,0.30726 z"
         id="path940" />
      <path
         d="m 88.23245,261.41005 q -0.01108,0.52481 -0.265493,0.94287 -0.262878,0.41788 -0.708229,0.65407 -0.445351,0.23618 -1.004027,0.22439 -0.575605,-0.0122 -1.002127,-0.26675 -0.426522,-0.25459 -0.654601,-0.68283 -0.228079,-0.42824 -0.217,-0.95306 0.01108,-0.52482 0.257206,-0.95152 0.245949,-0.41823 0.6913,-0.65442 0.436886,-0.23636 1.012492,-0.22421 0.558675,0.0118 0.994019,0.24963 0.426701,0.24613 0.671888,0.66627 0.236544,0.42842 0.224572,0.99556 z m -0.787047,-0.0251 q 0.0071,-0.33859 -0.139321,-0.62114 -0.146648,-0.27409 -0.397196,-0.44028 -0.259013,-0.16637 -0.57221,-0.17299 -0.330127,-0.007 -0.587466,0.14851 -0.265803,0.15529 -0.415423,0.42312 -0.149798,0.2763 -0.156946,0.61489 -0.0071,0.33859 0.131035,0.61251 0.138005,0.28237 0.397018,0.44874 0.25037,0.17466 0.580496,0.18163 0.321662,0.007 0.587644,-0.15697 0.257518,-0.16393 0.415781,-0.44005 0.149619,-0.26784 0.156588,-0.59797 z"
         id="path942" />
      <path
         d="m 82.284257,262.87566 0.02287,-0.85751 0.01938,0.13828 q -0.209482,0.36943 -0.612475,0.55655 -0.403887,0.19555 -0.900632,0.14284 -0.496745,-0.0527 -0.776997,-0.38044 -0.289564,-0.32021 -0.24885,-0.78417 l 0.273361,-2.57634 0.791425,0.084 -0.243881,2.2985 q -0.02195,0.28715 0.119255,0.48093 0.131895,0.20131 0.460252,0.23615 0.303099,0.0322 0.565129,-0.11032 0.262029,-0.14248 0.436426,-0.42198 0.165977,-0.28038 0.207071,-0.66768 l 0.173307,-1.63336 0.783005,0.0831 -0.369841,3.48563 z"
         id="path944" />
      <path
         d="m 75.447938,260.72249 q -0.183732,0.7339 -0.830584,1.12171 -0.646851,0.38782 -1.380745,0.20409 -0.729883,-0.18273 -1.117702,-0.82958 -0.387818,-0.64685 -0.204085,-1.38075 0.182728,-0.72988 0.82958,-1.1177 0.646851,-0.38782 1.376735,-0.20509 0.733893,0.18374 1.121712,0.83059 0.387818,0.64685 0.205089,1.37673 z"
         id="path946" />
      <path
         d="m 70.287686,259.34812 q -0.252306,0.71323 -0.932931,1.03815 -0.680624,0.32491 -1.393856,0.0726 -0.709335,-0.25093 -1.03425,-0.93155 -0.324915,-0.68063 -0.07261,-1.39386 0.250927,-0.70933 0.931551,-1.03425 0.680625,-0.32491 1.389959,-0.074 0.713232,0.25231 1.038147,0.93293 0.324916,0.68063 0.07399,1.38996 z"
         id="path948" />
      <path
         d="m 65.280713,257.49193 q -0.318539,0.68621 -1.026808,0.9454 -0.708269,0.25918 -1.394484,-0.0594 -0.682465,-0.3168 -0.941646,-1.02507 -0.259181,-0.70827 0.05936,-1.39448 0.316798,-0.68247 1.025067,-0.94165 0.70827,-0.25918 1.390734,0.0576 0.686215,0.31854 0.945396,1.02681 0.259181,0.70827 -0.05762,1.39073 z"
         id="path950" />
      <path
         d="m 56.186556,257.07039 -0.781528,-0.53705 1.279223,-4.79165 0.08506,0.13036 -2.772032,1.89613 0.314152,-1.12989 3.4714,-2.19629 z m -2.421341,-1.6639 -0.676859,-0.46512 1.129215,-4.81256 0.120378,0.12382 -3.894228,2.87139 -0.718727,-0.49389 5.582854,-3.87862 z"
         id="path952" />
      <path
         d="m 52.029441,246.32533 q 0.369734,0.32318 0.536422,0.75 0.160312,0.42126 0.07135,0.88326 -0.10091,0.46281 -0.490951,0.90904 -0.384468,0.43985 -0.847936,0.597 -0.469039,0.16353 -0.925471,0.0682 -0.462806,-0.10091 -0.832541,-0.42409 -0.369734,-0.32318 -0.474279,-0.71817 -0.110118,-0.38863 -0.04339,-0.73513 l 0.127401,-0.0686 -0.54771,0.51083 -0.548227,-0.4792 2.306811,-2.63914 0.59285,0.5182 -0.601777,0.68847 0.06998,-0.20871 q 0.08122,-0.0415 0.259618,-0.0654 0.166451,-0.0232 0.402222,0.003 0.229397,0.0206 0.475556,0.11205 0.240587,0.0978 0.470078,0.29843 z m -0.588413,0.35156 q -0.223116,-0.19502 -0.474044,-0.26817 -0.250929,-0.0731 -0.49383,-0.0268 -0.254849,0.0471 -0.483348,0.21849 l -0.451332,0.51635 q -0.116163,0.23582 -0.111252,0.4875 -6.62e-4,0.25806 0.110967,0.49058 0.106056,0.23888 0.322797,0.42833 0.235866,0.20617 0.533779,0.26415 0.297912,0.058 0.597337,-0.0401 0.293049,-0.1037 0.532645,-0.37781 0.222881,-0.25499 0.285637,-0.57123 0.06276,-0.31623 -0.03537,-0.61565 -0.09812,-0.29943 -0.333989,-0.50559 z"
         id="path954" />
      <path
         d="m 46.921942,246.49928 -0.55796,-0.55559 2.473268,-2.48382 0.55796,0.55559 z m -0.854115,0.94176 q -0.131429,0.13199 -0.323033,0.12042 -0.197604,-0.0175 -0.323595,-0.14299 -0.125991,-0.12546 -0.132373,-0.31104 -0.01238,-0.19155 0.119048,-0.32354 0.137404,-0.13799 0.329008,-0.12643 0.17963,0.0116 0.305621,0.13705 0.125991,0.12546 0.144372,0.32298 0.01238,0.19156 -0.119048,0.32355 z"
         id="path956" />
      <path
         d="m 43.932477,245.63547 -0.53101,-0.5814 1.150301,-1.0506 -0.650914,-0.71269 0.456369,-0.41681 0.650915,0.71269 2.119305,-1.93562 0.531009,0.5814 -2.119305,1.93562 0.433943,0.47512 -0.456369,0.41682 -0.433943,-0.47513 z"
         id="path958" />
      <path
         d="m 43.171843,242.44802 -0.50285,-0.60592 2.697326,-2.2385 0.502851,0.60592 z m -0.939443,0.85665 q -0.143336,0.11896 -0.332984,0.0893 -0.195056,-0.0362 -0.308602,-0.17299 -0.113547,-0.13682 -0.10233,-0.32217 0.0058,-0.19186 0.149146,-0.31082 0.149852,-0.12436 0.3395,-0.0947 0.177726,0.0285 0.291273,0.16536 0.113547,0.13683 0.113143,0.33521 -0.0058,0.19186 -0.149146,0.31081 z"
         id="path960" />
      <path
         d="m 41.25162,240.04957 0.650965,-0.55865 -0.08949,0.10719 q -0.414445,0.0927 -0.823656,-0.0804 -0.416051,-0.16812 -0.710423,-0.5717 -0.294371,-0.40358 -0.239563,-0.8313 0.04298,-0.42958 0.41421,-0.71083 l 2.093159,-1.52674 0.468999,0.643 -1.867427,1.36209 q -0.227583,0.17648 -0.276434,0.41122 -0.06068,0.23289 0.133904,0.49967 0.179616,0.24625 0.461115,0.34484 0.281499,0.0986 0.605732,0.0402 0.319243,-0.0652 0.633901,-0.29469 l 1.327035,-0.96793 0.464009,0.63615 -2.831921,2.06559 z"
         id="path962" />
      <path
         d="m 42.40124,232.39928 q 0.200496,0.33389 0.273204,0.63589 0.07997,0.29763 0.06845,0.59094 -0.01587,0.28606 -0.07675,0.57939 l -0.692656,-0.11737 q 0.08118,-0.37465 0.05638,-0.69554 -0.0248,-0.32089 -0.20786,-0.62575 -0.204855,-0.34115 -0.460468,-0.50369 -0.252714,-0.17415 -0.53005,-0.1755 -0.270078,-0.006 -0.531387,0.15119 l -0.817319,0.48091 0.09579,-0.13652 q 0.390574,-0.0568 0.813186,0.15362 0.415354,0.21476 0.707382,0.70108 0.248442,0.41374 0.247158,0.88855 -0.0056,0.46756 -0.234913,0.89163 -0.240887,0.42117 -0.690919,0.6914 -0.471807,0.28331 -0.958236,0.27913 -0.493687,1.7e-4 -0.917759,-0.2291 -0.424071,-0.22927 -0.676871,-0.65026 -0.239725,-0.39923 -0.268916,-0.82611 -0.04081,-0.42978 0.121711,-0.73477 l 0.145188,-0.0378 -0.624272,0.27611 -0.370483,-0.61698 3.026825,-1.81755 q 0.40648,-0.24408 0.866774,-0.23408 0.460295,0.01 0.887283,0.27702 0.426989,0.26702 0.749528,0.80416 z m -2.400641,2.8439 q 0.290343,-0.17434 0.447061,-0.45609 0.156719,-0.28175 0.155156,-0.59684 -0.0059,-0.32234 -0.180267,-0.61269 -0.161269,-0.26856 -0.382031,-0.4224 -0.232378,-0.15674 -0.486498,-0.20166 -0.261378,-0.0406 -0.521263,0.0365 l -0.595203,0.3574 q -0.17853,0.19609 -0.246687,0.44441 -0.07542,0.25268 -0.03612,0.51548 0.03204,0.26716 0.184591,0.52121 0.174345,0.29034 0.448834,0.45142 0.270131,0.15382 0.592477,0.1479 0.315089,-0.002 0.619949,-0.18463 z"
         id="path964" />
      <path
         d="m 37.954177,227.68784 -2.562389,1.13489 0.243437,0.54964 -0.642533,0.28458 -0.243436,-0.54964 -1.354738,0.60003 q -0.696722,0.30858 -1.205455,0.1635 -0.512161,-0.15282 -0.783027,-0.76439 -0.072,-0.16256 -0.111272,-0.37667 -0.0427,-0.22185 5.37e-4,-0.41694 l 0.652389,0.0722 q -0.03881,0.10053 -0.02432,0.19597 0.0068,0.0989 0.04446,0.18402 0.126862,0.28643 0.38897,0.35554 0.262107,0.0691 0.726589,-0.13661 l 1.346996,-0.59659 -0.449158,-1.01412 0.642532,-0.28458 0.449158,1.01412 2.56239,-1.1349 z"
         id="path966" />
      <path
         d="m 35.287959,226.0714 q -0.493772,0.17817 -0.975313,0.0909 -0.484414,-0.0952 -0.864803,-0.42604 -0.38039,-0.33079 -0.570052,-0.85642 -0.195411,-0.54156 -0.11101,-1.03106 0.0844,-0.48951 0.402141,-0.85618 0.317741,-0.36668 0.811513,-0.54485 0.493773,-0.17817 0.980404,-0.10173 0.478666,0.0793 0.859056,0.4101 0.377516,0.32283 0.572926,0.86439 0.189663,0.52563 0.124064,1.01735 -0.07644,0.48663 -0.380466,0.86636 -0.314867,0.37465 -0.84846,0.56718 z m -0.259288,-0.74353 q 0.318563,-0.11495 0.529651,-0.35313 0.203125,-0.23531 0.268232,-0.52883 0.06223,-0.30149 -0.04409,-0.59616 -0.112074,-0.3106 -0.349601,-0.49492 -0.240402,-0.19229 -0.544105,-0.23572 -0.311667,-0.0406 -0.63023,0.0744 -0.318563,0.11495 -0.52456,0.34229 -0.213962,0.23022 -0.276196,0.53171 -0.07307,0.2964 0.039,0.60699 0.109199,0.30264 0.357565,0.49205 0.245492,0.18145 0.560032,0.22997 0.303703,0.0434 0.614302,-0.0686 z"
         id="path968" />
      <path
         d="m 31.805405,221.08552 0.957454,-0.34834 -0.118953,0.0774 q -0.34639,-0.0433 -0.627055,-0.22827 -0.291107,-0.1908 -0.480838,-0.42769 -0.200174,-0.24275 -0.257464,-0.44651 l 0.761318,-0.17008 q 0.08325,0.38996 0.336914,0.63526 0.251369,0.23715 0.584765,0.32811 0.331105,0.0828 0.657131,-0.009 l 1.540473,-0.43311 0.210826,0.74986 -3.374369,0.94872 z"
         id="path970" />
      <path
         d="m 33.220865,212.36317 q 0.221561,0.20447 0.382683,0.51299 0.161123,0.30853 0.213576,0.63453 0.09146,0.56843 -0.06565,1.03106 -0.157104,0.46263 -0.51934,0.7696 -0.371941,0.29996 -0.923645,0.38873 -0.551705,0.0888 -1.001653,-0.0961 -0.451292,-0.19324 -0.734533,-0.56787 -0.292946,-0.38164 -0.369608,-0.85811 -0.06725,-0.41796 -0.0027,-0.7628 0.06323,-0.35319 0.22619,-0.61953 l 0.563418,0.30383 q -0.09282,0.16929 -0.149801,0.40142 -0.05698,0.23214 -0.0126,0.50799 0.04842,0.30093 0.248937,0.53451 0.190813,0.22656 0.482516,0.33399 0.290357,0.0991 0.624724,0.0453 0.317648,-0.0511 0.569291,-0.24596 0.243284,-0.1935 0.359069,-0.48655 0.107426,-0.2917 0.05228,-0.63443 -0.03631,-0.22569 -0.132776,-0.39884 -0.09781,-0.1815 -0.239045,-0.31313 z"
         id="path972" />
      <path
         d="m 31.660018,211.75191 q -0.523179,0.0429 -0.965158,-0.16724 -0.442671,-0.21856 -0.723356,-0.63729 -0.280684,-0.41874 -0.326341,-0.97567 -0.04704,-0.57381 0.162392,-1.02422 0.209433,-0.45042 0.611981,-0.72128 0.402549,-0.27087 0.925727,-0.31376 0.523179,-0.0429 0.972905,0.15811 0.441287,0.20168 0.721972,0.62042 0.279992,0.41029 0.327033,0.9841 0.04566,0.55693 -0.146208,1.01441 -0.200994,0.44972 -0.59372,0.73677 -0.401857,0.2793 -0.967227,0.32565 z m -0.0559,-0.78546 q 0.337534,-0.0277 0.603548,-0.20239 0.257576,-0.17403 0.397152,-0.44032 0.138884,-0.27473 0.113288,-0.58695 -0.02698,-0.3291 -0.20806,-0.56911 -0.181774,-0.24844 -0.463562,-0.36976 -0.290226,-0.12062 -0.62776,-0.093 -0.337535,0.0277 -0.595802,0.19326 -0.266706,0.16628 -0.40559,0.44101 -0.148014,0.26699 -0.121036,0.59608 0.02629,0.32066 0.2165,0.56841 0.18952,0.23932 0.480438,0.36838 0.281787,0.12132 0.610884,0.0943 z"
         id="path974" />
      <path
         d="m 29.591975,205.9863 0.855302,-0.0656 -0.135552,0.0335 q -0.389039,-0.17031 -0.616678,-0.55189 -0.236106,-0.38159 -0.234847,-0.88113 0.0013,-0.49953 0.298381,-0.81205 0.288676,-0.321 0.754363,-0.3283 l 2.590793,0.007 -0.002,0.79587 -2.311393,-0.006 q -0.287888,0.008 -0.466092,0.16816 -0.186651,0.15193 -0.187483,0.48213 -7.68e-4,0.3048 0.167946,0.55076 0.168714,0.24596 0.464684,0.39064 0.295991,0.13621 0.685457,0.13719 l 1.642529,0.004 -0.002,0.7874 -3.50519,-0.009 z"
         id="path976" />
      <path
         d="m 33.187069,201.72863 -2.791225,-0.25077 -0.05379,0.59872 -0.699915,-0.0629 0.05379,-0.59872 -1.475723,-0.13259 q -0.758943,-0.0682 -1.133408,-0.44186 -0.373707,-0.38211 -0.313854,-1.04829 0.01591,-0.17709 0.08545,-0.38336 0.07029,-0.2147 0.202747,-0.36432 l 0.535444,0.37964 q -0.08271,0.0691 -0.116345,0.15956 -0.04131,0.0813 -0.0504,0.18249 -0.02803,0.31201 0.167633,0.4996 0.195665,0.1876 0.701627,0.23306 l 1.467291,0.13182 0.0894,-0.99506 0.699914,0.0629 -0.0894,0.99506 2.791225,0.25077 z m -3.27067,-2.76757 0.07046,-0.78424 3.491139,0.31366 -0.07046,0.78424 z m -1.270209,-0.0546 q -0.185519,-0.0167 -0.28994,-0.17906 -0.112853,-0.16315 -0.09694,-0.34024 0.01515,-0.16865 0.154523,-0.30065 0.130938,-0.13275 0.32489,-0.11532 0.193952,0.0174 0.307563,0.17215 0.105178,0.15396 0.09003,0.32261 -0.01591,0.17709 -0.156038,0.31751 -0.140128,0.14043 -0.33408,0.123 z"
         id="path978" />
      <path
         d="m 30.339378,195.86781 1.01482,0.0906 -0.140559,0.0197 q -0.295321,-0.18614 -0.471065,-0.47265 -0.182716,-0.29625 -0.254077,-0.59125 -0.07833,-0.30473 -0.0438,-0.51356 l 0.76159,0.16885 q -0.08998,0.38846 0.03571,0.71818 0.127071,0.32138 0.390426,0.54514 0.264736,0.21541 0.598866,0.27067 l 1.57876,0.26107 -0.127083,0.76849 -3.458237,-0.57187 z"
         id="path980" />
      <path
         d="m 30.968495,192.40978 0.778641,0.1353 -0.07413,0.0155 q -0.33512,-0.28977 -0.465482,-0.69191 -0.128203,-0.41032 -0.0095,-0.86059 0.07557,-0.28654 0.223916,-0.48383 0.148349,-0.1973 0.356975,-0.29113 0.202598,-0.10418 0.458996,-0.0803 l 0.01377,0.0474 q -0.316587,-0.29364 -0.430576,-0.69146 -0.120016,-0.40817 -0.01854,-0.79295 0.131702,-0.49939 0.493806,-0.71036 0.356075,-0.22131 0.808506,-0.11075 l 2.505147,0.66067 -0.200792,0.76137 -2.234984,-0.58943 q -0.264135,-0.0609 -0.468443,0.0166 -0.210336,0.0671 -0.304435,0.35752 -0.07773,0.29473 0.03977,0.57964 0.119655,0.27673 0.371647,0.48329 0.243804,0.20439 0.569116,0.29894 l 1.612791,0.42533 -0.200793,0.76137 -2.234984,-0.58942 q -0.264135,-0.0609 -0.470602,0.0247 -0.212495,0.0753 -0.306594,0.3657 -0.07989,0.30291 0.03977,0.57964 0.119655,0.27673 0.371647,0.48328 0.25415,0.19837 0.58162,0.28473 l 1.604605,0.42318 -0.200793,0.76137 -3.389317,-0.89385 z"
         id="path982" />
      <path
         d="m 36.690531,185.93584 q -0.176871,0.4581 -0.520707,0.76099 -0.340788,0.29499 -0.805298,0.36977 -0.469359,0.0638 -1.022248,-0.14964 -0.544991,-0.21041 -0.851477,-0.59194 -0.314384,-0.38458 -0.381265,-0.84604 -0.06383,-0.46936 0.113039,-0.92747 0.176872,-0.45811 0.512109,-0.69171 0.327339,-0.23665 0.675722,-0.29273 l 0.108077,0.0962 -0.667615,-0.33944 0.262257,-0.67926 3.269946,1.26249 -0.283604,0.73455 -0.853029,-0.32934 0.220057,-0.006 q 0.06679,0.0621 0.150468,0.22146 0.07883,0.14842 0.135069,0.37888 0.05929,0.22255 0.05773,0.48515 -0.0095,0.25955 -0.119234,0.5439 z m -0.531941,-0.43228 q 0.106733,-0.27644 0.08944,-0.53724 -0.01729,-0.2608 -0.144067,-0.47311 -0.131621,-0.22326 -0.370922,-0.37918 l -0.639772,-0.24701 q -0.261349,-0.0283 -0.496104,0.0626 -0.242654,0.0878 -0.422821,0.27239 -0.188066,0.18152 -0.291749,0.45006 -0.112831,0.29224 -0.06519,0.59199 0.04764,0.29974 0.242446,0.54739 0.197858,0.23976 0.53749,0.37089 0.315937,0.12198 0.634525,0.0725 0.318589,-0.0494 0.566243,-0.24425 0.247654,-0.19481 0.360485,-0.48705 z"
         id="path984" />
      <path
         d="m 33.538804,180.20133 0.337109,-0.71159 1.407872,0.66697 0.41323,-0.87227 0.558558,0.26461 -0.41323,0.87227 2.593851,1.22882 -0.337109,0.71158 -2.593851,-1.22881 -0.275487,0.58151 -0.558558,-0.26461 0.275487,-0.58152 z"
         id="path986" />
      <path
         d="m 36.202206,178.28947 0.370771,-0.69464 3.092278,1.65053 -0.370771,0.69464 z m -1.148299,-0.54573 q -0.164324,-0.0877 -0.208587,-0.27449 -0.04028,-0.19425 0.04345,-0.3511 0.08372,-0.15686 0.25955,-0.21657 0.179814,-0.0672 0.344138,0.0205 0.171793,0.0917 0.216057,0.27847 0.04078,0.17533 -0.04294,0.33218 -0.08372,0.15686 -0.267524,0.2315 -0.179815,0.0672 -0.344139,-0.0205 z"
         id="path988" />
      <path
         d="m 38.630884,177.36592 q -0.446827,-0.2755 -0.678309,-0.70667 -0.227039,-0.43839 -0.204974,-0.94201 0.02206,-0.50362 0.315339,-0.97928 0.302161,-0.49007 0.737782,-0.72875 0.435621,-0.23869 0.920385,-0.21831 0.484765,0.0204 0.931592,0.29589 0.446828,0.2755 0.68996,0.70391 0.235926,0.42397 0.213861,0.92759 -0.01762,0.49642 -0.319782,0.98649 -0.293274,0.47565 -0.718925,0.73043 -0.428414,0.24314 -0.914859,0.24161 -0.489207,-0.0132 -0.97207,-0.3109 z m 0.420457,-0.66579 q 0.288276,0.17774 0.606088,0.19465 0.310604,0.0125 0.580842,-0.11931 0.274681,-0.13899 0.439092,-0.40564 0.173299,-0.28107 0.169674,-0.5817 8.19e-4,-0.30785 -0.154261,-0.57256 -0.162288,-0.26915 -0.450563,-0.44689 -0.288276,-0.17774 -0.594437,-0.19742 -0.313368,-0.0241 -0.588049,0.11487 -0.277445,0.12733 -0.450743,0.4084 -0.168855,0.27386 -0.162467,0.58615 0.01083,0.30508 0.168675,0.58144 0.15508,0.26471 0.436149,0.43801 z"
         id="path990" />
      <path
         d="m 40.384413,171.49442 0.727364,0.45473 -0.129002,-0.0534 q -0.212085,-0.36793 -0.168898,-0.81015 0.03639,-0.44725 0.33381,-0.84859 0.297426,-0.40134 0.722028,-0.47659 0.422842,-0.0871 0.802011,0.18337 l 2.081514,1.54258 -0.473864,0.63942 -1.857037,-1.37622 q -0.236321,-0.1646 -0.474951,-0.14122 -0.240391,0.0115 -0.436994,0.27683 -0.18148,0.24489 -0.191625,0.54298 -0.01015,0.29809 0.142237,0.59016 0.157424,0.28528 0.470331,0.51717 l 1.319652,0.97798 -0.468823,0.63261 -2.816165,-2.08702 z"
         id="path992" />
      <path
         d="m 45.705476,166.69685 q -0.539839,-0.53003 -0.546754,-1.2842 -0.0069,-0.75417 0.523115,-1.294 0.527133,-0.53689 1.281303,-0.54381 0.75417,-0.007 1.294009,0.52312 0.536889,0.52713 0.543804,1.2813 0.0069,0.75417 -0.520218,1.29106 -0.53003,0.53984 -1.2842,0.54675 -0.754169,0.007 -1.291059,-0.52022 z"
         id="path994" />
      <path
         d="m 49.500482,162.94406 q -0.488036,-0.57809 -0.424562,-1.32961 0.06347,-0.75153 0.641557,-1.23956 0.574923,-0.48537 1.326449,-0.4219 0.751525,0.0635 1.239561,0.64156 0.485369,0.57492 0.421895,1.32645 -0.06347,0.75152 -0.638398,1.23689 -0.578082,0.48804 -1.329608,0.42456 -0.751525,-0.0635 -1.236894,-0.63839 z"
         id="path996" />
      <path
         d="m 53.62941,159.56144 q -0.431866,-0.62117 -0.298424,-1.36347 0.133442,-0.7423 0.75461,-1.17417 0.617774,-0.42951 1.360076,-0.29606 0.742303,0.13344 1.174169,0.75461 0.429506,0.61777 0.296064,1.36007 -0.133443,0.7423 -0.751216,1.17181 -0.621168,0.43187 -1.36347,0.29842 -0.742303,-0.13344 -1.171809,-0.75121 z"
         id="path998" />
      <path
         d="m 58.579161,151.91946 0.857922,-0.40396 3.492287,3.52141 -0.155468,0.008 -0.239112,-3.34997 0.817184,0.84116 0.145544,4.10525 z m 2.658027,-1.25154 0.743022,-0.34985 3.585992,3.40242 -0.167627,0.0415 -0.515218,-4.81087 0.788982,-0.3715 0.533219,6.77699 z"
         id="path1000" />
      <path
         d="m 69.954961,153.75213 q -0.465732,0.15569 -0.918275,0.0838 -0.444512,-0.0746 -0.798197,-0.38485 -0.34834,-0.32099 -0.536244,-0.88308 -0.18522,-0.55406 -0.08657,-1.0334 0.09597,-0.48737 0.408921,-0.83303 0.320987,-0.34834 0.786719,-0.50403 0.465732,-0.15569 0.859404,-0.0463 0.390988,0.10141 0.656252,0.33411 l -0.0052,0.14458 -0.163953,-0.73078 0.690568,-0.23086 1.111319,3.32437 -0.746778,0.24964 -0.289909,-0.86722 0.144723,0.16587 q -0.0053,0.091 -0.07475,0.2571 -0.06412,0.15534 -0.20586,0.34556 -0.133708,0.18753 -0.337046,0.35371 -0.206023,0.15814 -0.495098,0.25478 z m -0.0059,-0.68541 q 0.281045,-0.094 0.470985,-0.2735 0.18994,-0.17955 0.272738,-0.41256 0.08814,-0.24372 0.05577,-0.52749 l -0.217432,-0.65042 q -0.14477,-0.21943 -0.364422,-0.3424 -0.222338,-0.131 -0.479386,-0.15219 -0.259733,-0.0292 -0.532749,0.062 -0.297105,0.0993 -0.497712,0.32707 -0.200608,0.22775 -0.267277,0.53571 -0.05864,0.30528 0.05679,0.65056 0.107373,0.3212 0.348524,0.53518 0.241151,0.21398 0.54911,0.28065 0.307958,0.0667 0.605063,-0.0326 z"
         id="path1002" />
      <path
         d="m 72.38969,149.25748 0.761589,-0.19996 0.890115,3.3903 -0.761589,0.19996 z m -0.379829,-1.21332 q -0.0473,-0.18016 0.05966,-0.33955 0.115154,-0.16154 0.287125,-0.20669 0.171972,-0.0452 0.335249,0.0433 0.171466,0.0863 0.218766,0.26644 0.04945,0.18835 -0.05751,0.34774 -0.100925,0.14905 -0.272897,0.1942 -0.171972,0.0452 -0.351626,-0.039 -0.171466,-0.0863 -0.218767,-0.26645 z"
         id="path1004" />
      <path
         d="m 74.651059,147.11645 0.770307,-0.16317 0.32284,1.52405 0.944247,-0.20002 0.128083,0.60465 -0.944247,0.20002 0.594796,2.80789 -0.770308,0.16318 -0.594796,-2.8079 -0.629498,0.13335 -0.128083,-0.60465 0.629498,-0.13335 z"
         id="path1006" />
      <path
         d="m 77.786164,148.07608 0.777237,-0.1261 0.561362,3.45996 -0.777237,0.1261 z m -0.261894,-1.24411 q -0.02983,-0.18386 0.09191,-0.33228 0.130094,-0.14976 0.305599,-0.17824 0.175505,-0.0285 0.329562,0.0752 0.162415,0.10231 0.192246,0.28617 0.03119,0.19222 -0.09055,0.34064 -0.114735,0.13869 -0.29024,0.16717 -0.175505,0.0285 -0.346277,-0.0725 -0.162415,-0.10231 -0.192246,-0.28617 z"
         id="path1008" />
      <path
         d="m 80.827826,147.63779 0.151183,0.84438 -0.04698,-0.13149 q 0.130363,-0.40419 0.487135,-0.66901 0.355943,-0.27325 0.853073,-0.32219 0.497131,-0.0489 0.837922,0.21528 0.348387,0.25496 0.402434,0.71756 l 0.253814,2.57834 -0.792038,0.078 -0.226443,-2.30029 q -0.03663,-0.28565 -0.214139,-0.44683 -0.169915,-0.17044 -0.498527,-0.1381 -0.303334,0.0299 -0.531097,0.22244 -0.227763,0.19257 -0.341973,0.50158 -0.105784,0.30818 -0.06763,0.69577 l 0.160916,1.63464 -0.783613,0.0771 -0.343396,-3.48834 z"
         id="path1010" />
      <path
         d="m 86.838837,152.50851 q -0.389449,0.004 -0.68666,-0.0866 -0.29713,-0.0818 -0.544192,-0.24033 -0.238595,-0.15859 -0.460663,-0.35968 l 0.452074,-0.53775 q 0.281899,0.25978 0.57113,0.40095 0.289231,0.14118 0.644815,0.13777 0.397916,-0.004 0.66754,-0.14186 0.278172,-0.12967 0.41983,-0.3681 0.141739,-0.22997 0.138823,-0.53475 l -6.09e-4,-0.94831 0.06919,0.15175 q -0.148909,0.36551 -0.544394,0.6233 -0.395565,0.24933 -0.962806,0.25476 -0.482578,0.005 -0.89131,-0.23701 -0.400265,-0.24172 -0.649757,-0.65422 -0.241107,-0.42104 -0.246131,-0.94595 -0.0053,-0.55031 0.244752,-0.96759 0.249937,-0.42574 0.662435,-0.67523 0.412499,-0.2495 0.903543,-0.2542 0.465645,-0.004 0.848492,0.18663 0.391231,0.18253 0.571859,0.47714 l -0.04095,0.14434 0.07818,-0.67812 0.719634,-0.007 0.03379,3.53044 q 0.0045,0.47411 -0.237258,0.86591 -0.241795,0.3918 -0.68832,0.62468 -0.446525,0.23288 -1.07303,0.23888 z m -1.235918,-3.51047 q 0.0032,0.33865 0.166774,0.6165 0.163533,0.27785 0.435993,0.43612 0.280927,0.15818 0.619578,0.15494 0.313253,-0.003 0.557722,-0.11541 0.252854,-0.12096 0.420316,-0.3173 0.167381,-0.20481 0.2326,-0.46792 l -0.0066,-0.69423 q -0.07863,-0.25326 -0.258202,-0.43782 -0.179656,-0.19302 -0.42615,-0.29227 -0.246576,-0.10771 -0.542896,-0.10487 -0.338651,0.003 -0.61658,0.1583 -0.269462,0.15499 -0.427648,0.43592 -0.158266,0.27246 -0.154863,0.62804 z"
         id="path1012" />
      <path
         d="m 93.154469,151.05512 0.314646,-2.78475 -0.597332,-0.0675 0.0789,-0.69829 0.597333,0.0675 0.166354,-1.4723 q 0.08555,-0.75718 0.467707,-1.12299 0.390567,-0.36485 1.055205,-0.28976 0.176676,0.02 0.381301,0.0942 0.213038,0.0752 0.359579,0.21104 l -0.391802,0.52661 q -0.06716,-0.0843 -0.156856,-0.11997 -0.08874,-0.0441 -0.181286,-0.0546 -0.311287,-0.0352 -0.503314,0.15614 -0.192028,0.19132 -0.249063,0.69611 l -0.165404,1.46389 1.102121,0.12452 -0.0789,0.69829 -1.102121,-0.12452 -0.314646,2.78474 z"
         id="path1014" />
      <path
         d="m 95.895626,149.5701 q 0.09542,-0.51619 0.413808,-0.88784 0.326717,-0.37011 0.804279,-0.53153 0.477563,-0.16142 1.027055,-0.0599 0.566142,0.10465 0.946119,0.42458 0.379977,0.31993 0.536147,0.77931 0.156169,0.45937 0.06075,0.97556 -0.09542,0.51619 -0.407021,0.8977 -0.310066,0.37319 -0.787628,0.53461 -0.469238,0.16296 -1.03538,0.0583 -0.549492,-0.10157 -0.940872,-0.40639 -0.381516,-0.31161 -0.555876,-0.76573 -0.164495,-0.46091 -0.06138,-1.01873 z m 0.772745,0.15145 q -0.06156,0.33302 0.03752,0.63547 0.100615,0.29412 0.321143,0.49848 0.228854,0.20589 0.536903,0.26283 0.324699,0.06 0.603708,-0.052 0.287335,-0.11048 0.478118,-0.35074 0.192321,-0.24858 0.25388,-0.58161 0.06156,-0.33302 -0.03073,-0.62561 -0.09075,-0.3009 -0.319604,-0.5068 -0.21899,-0.21268 -0.543689,-0.2727 -0.316374,-0.0585 -0.605248,0.0603 -0.280548,0.12035 -0.481195,0.36739 -0.190783,0.24026 -0.250802,0.56496 z"
         id="path1016" />
      <path
         d="m 101.95713,149.07978 -0.18241,1.00239 -0.007,-0.14176 q 0.2122,-0.27719 0.5135,-0.42618 0.31162,-0.15504 0.61188,-0.19931 0.31058,-0.0503 0.51541,0.003 l -0.23734,0.7431 q -0.37868,-0.1249 -0.71846,-0.0297 -0.33159,0.0973 -0.57835,0.33929 -0.23857,0.24407 -0.32396,0.57179 l -0.40343,1.54852 -0.75377,-0.19638 0.8837,-3.39198 z"
         id="path1018" />
      <path
         d="m 108.77311,154.70399 q -0.28834,0.088 -0.63601,0.0714 -0.34766,-0.0167 -0.65556,-0.13596 -0.53685,-0.208 -0.85689,-0.57716 -0.32005,-0.36915 -0.40218,-0.83681 -0.0712,-0.47249 0.13071,-0.99355 0.20188,-0.52106 0.5886,-0.81614 0.39462,-0.29203 0.861,-0.34741 0.47733,-0.0602 0.92733,0.11413 0.39474,0.15294 0.65982,0.38276 0.27297,0.23288 0.42061,0.508 l -0.54669,0.33299 q -0.0993,-0.16559 -0.2709,-0.33196 -0.17162,-0.16637 -0.43215,-0.26731 -0.28421,-0.11012 -0.58707,-0.0549 -0.2919,0.0503 -0.53189,0.24792 -0.23209,0.20063 -0.35444,0.51643 -0.11624,0.3 -0.0751,0.61559 0.0442,0.30769 0.23874,0.55557 0.19758,0.23999 0.52126,0.3654 0.21316,0.0826 0.41132,0.0867 0.20605,0.007 0.39098,-0.0483 z"
         id="path1020" />
      <path
         d="m 110.08972,153.66553 q 0.22737,-0.47314 0.63203,-0.74836 0.4123,-0.27155 0.91547,-0.30216 0.50318,-0.0306 1.00684,0.21142 0.51893,0.24936 0.80178,0.6577 0.28284,0.40833 0.31316,0.89257 0.0303,0.48425 -0.19705,0.95739 -0.22736,0.47314 -0.62806,0.75965 -0.39704,0.27888 -0.90021,0.3095 -0.49554,0.0343 -1.01447,-0.21509 -0.50367,-0.24203 -0.80148,-0.63877 -0.28651,-0.4007 -0.33576,-0.88465 -0.0379,-0.48791 0.20775,-0.9992 z m 0.70604,0.34867 q -0.14668,0.30525 -0.13034,0.6231 0.02,0.31021 0.17928,0.56522 0.16689,0.25867 0.44925,0.39436 0.29762,0.14302 0.59623,0.10804 0.30625,-0.0313 0.55333,-0.21317 0.25075,-0.18949 0.39744,-0.49475 0.14668,-0.30525 0.1343,-0.61179 -0.009,-0.31417 -0.17561,-0.57285 -0.15559,-0.26264 -0.45321,-0.40566 -0.28999,-0.13935 -0.5999,-0.10041 -0.30229,0.0426 -0.56067,0.22844 -0.24708,0.18185 -0.3901,0.47947 z"
         id="path1022" />
      <path
         d="m 116.11306,154.79788 -0.37663,0.77071 0.0397,-0.13386 q 0.34389,-0.2492 0.7882,-0.25223 0.44861,-0.0103 0.8787,0.24377 0.43009,0.25408 0.54908,0.66856 0.13059,0.41149 -0.099,0.81673 l -1.31778,2.23062 -0.68523,-0.4048 1.17567,-1.99007 q 0.13913,-0.25216 0.0911,-0.48706 -0.0365,-0.23789 -0.32076,-0.40584 -0.26243,-0.15504 -0.55996,-0.13413 -0.29753,0.0209 -0.57218,0.20283 -0.26736,0.18623 -0.46546,0.52156 l -0.83545,1.41418 -0.67794,-0.4005 1.78288,-3.01791 z"
         id="path1024" />
      <path
         d="m 117.96264,160.0557 1.63207,-2.2782 -0.48868,-0.35008 0.40925,-0.57127 0.48868,0.35008 0.86287,-1.20448 q 0.44377,-0.61945 0.95576,-0.75259 0.51886,-0.12822 1.0626,0.26131 0.14454,0.10354 0.28702,0.26811 0.14937,0.1695 0.21111,0.35954 l -0.59878,0.26884 q -0.0176,-0.10632 -0.0785,-0.1812 -0.0491,-0.0768 -0.1317,-0.13601 -0.25466,-0.18244 -0.51558,-0.10898 -0.26093,0.0734 -0.55677,0.48642 l -0.85794,1.1976 0.81216,0.58182 -0.40925,0.57127 -0.81217,-0.58182 -1.63207,2.27819 z m 4.0442,-1.41463 0.6401,0.45856 -2.04132,2.84946 -0.6401,-0.45855 z m 0.69143,-1.06693 q 0.10848,-0.15142 0.3014,-0.15902 0.19785,-0.0145 0.34239,0.089 0.13765,0.0986 0.1807,0.28568 0.048,0.18018 -0.0654,0.33849 -0.11341,0.1583 -0.30438,0.17772 -0.18603,0.0125 -0.32369,-0.0861 -0.14454,-0.10354 -0.19447,-0.29554 -0.0499,-0.19199 0.0635,-0.3503 z"
         id="path1026" />
      <path
         d="m 124.45741,160.57435 -0.59269,0.82872 0.0543,-0.13111 q 0.31019,-0.16014 0.64625,-0.16632 0.34799,-0.007 0.63842,0.0808 0.30237,0.087 0.46484,0.22268 l -0.53173,0.57078 q -0.28918,-0.27455 -0.6371,-0.33342 -0.34142,-0.0534 -0.66783,0.06 -0.31991,0.11894 -0.53697,0.3789 l -1.02562,1.22831 -0.59791,-0.49924 2.24659,-2.69059 z"
         id="path1028" />
      <path
         d="m 127.11608,162.86722 -0.51081,0.60304 0.0242,-0.0718 q 0.41953,-0.14234 0.83234,-0.0512 0.41877,0.0971 0.74699,0.42746 0.20886,0.21021 0.30392,0.43801 0.0951,0.22781 0.0704,0.45523 -0.0127,0.22746 -0.16304,0.43652 l -0.0479,-0.0121 q 0.41349,-0.1244 0.81428,-0.0213 0.41277,0.1031 0.69325,0.38538 0.36402,0.36636 0.36268,0.78544 0.0106,0.41912 -0.31373,0.75334 l -1.83783,1.8261 -0.55499,-0.55856 1.63963,-1.62916 q 0.18623,-0.19697 0.22284,-0.41238 0.0486,-0.21537 -0.15424,-0.44352 -0.21484,-0.21622 -0.52003,-0.25911 -0.29922,-0.0369 -0.60492,0.0759 -0.29968,0.1068 -0.54589,0.3395 l -1.18317,1.17563 -0.555,-0.55856 1.63964,-1.62917 q 0.18622,-0.19697 0.21686,-0.41838 0.0426,-0.22138 -0.1602,-0.44953 -0.22081,-0.22222 -0.52003,-0.2591 -0.29923,-0.0369 -0.60492,0.0759 -0.29972,0.11878 -0.53996,0.35749 l -1.17717,1.16965 -0.55499,-0.55855 2.48647,-2.47061 z"
         id="path1030" />
      <path
         d="m 129.80612,171.07656 q -0.30612,-0.38398 -0.39394,-0.8337 -0.0825,-0.44311 0.0874,-0.88181 0.18189,-0.43736 0.64532,-0.80681 0.4568,-0.36417 0.94088,-0.43607 0.49069,-0.0772 0.92278,0.0981 0.43736,0.1819 0.74347,0.56588 0.30612,0.38398 0.33848,0.7913 0.039,0.40204 -0.0885,0.73106 l -0.1376,0.0447 0.6301,-0.40487 0.45389,0.56935 -2.74083,2.18502 -0.49084,-0.61569 0.715,-0.57001 -0.10611,0.19287 q -0.0873,0.0263 -0.26713,0.0181 -0.16792,-0.007 -0.39523,-0.0747 -0.22204,-0.0612 -0.44792,-0.19514 -0.21926,-0.13921 -0.40926,-0.37754 z m 0.64171,-0.24088 q 0.18473,0.23171 0.41857,0.34847 0.23384,0.11675 0.48111,0.11453 0.25917,-8.8e-4 0.51458,-0.12871 l 0.53625,-0.4275 q 0.15639,-0.2113 0.19648,-0.45982 0.0467,-0.25379 -0.0216,-0.5025 -0.0617,-0.25398 -0.24116,-0.47907 -0.19528,-0.24495 -0.47806,-0.35518 -0.28278,-0.11023 -0.59491,-0.0671 -0.30685,0.0497 -0.59152,0.27667 -0.26482,0.21111 -0.38301,0.51107 -0.1182,0.29995 -0.0751,0.61208 0.0431,0.31213 0.23838,0.55709 z"
         id="path1032" />
      <path
         d="m 136.34633,171.24796 0.44446,0.64997 -1.28596,0.87936 0.54482,0.79673 -0.51019,0.34888 -0.54482,-0.79674 -2.36923,1.62012 -0.44446,-0.64997 2.36923,-1.62011 -0.36321,-0.53116 0.51019,-0.34888 0.36321,0.53116 z"
         id="path1034" />
      <path
         d="m 136.65382,174.51119 0.41301,0.67039 -2.98433,1.83854 -0.413,-0.67039 z m 1.05019,-0.7166 q 0.15859,-0.0977 0.34222,-0.0418 0.18806,0.0631 0.28132,0.21452 0.0933,0.15137 0.0562,0.33332 -0.0326,0.18916 -0.19122,0.28686 -0.1658,0.10214 -0.34942,0.0462 -0.17198,-0.0532 -0.26524,-0.20454 -0.0933,-0.15138 -0.0651,-0.34774 0.0326,-0.18916 0.19121,-0.28686 z"
         id="path1036" />
      <path
         d="m 136.22727,177.07421 q 0.46319,-0.247 0.95226,-0.22954 0.49306,0.0249 0.91687,0.29788 0.42382,0.27294 0.68676,0.76602 0.2709,0.50801 0.25743,1.00456 -0.0135,0.49654 -0.27547,0.90492 -0.26199,0.40838 -0.72518,0.65538 -0.46319,0.247 -0.95575,0.241 -0.48509,-0.01 -0.9089,-0.28294 -0.41984,-0.26548 -0.69074,-0.77349 -0.26294,-0.49307 -0.26839,-0.98912 0.006,-0.49256 0.25255,-0.9119 0.25801,-0.41585 0.75856,-0.68277 z m 0.36303,0.69877 q -0.29883,0.15936 -0.47366,0.4253 -0.16736,0.26196 -0.18978,0.56178 -0.0185,0.30729 0.12896,0.58371 0.15537,0.29136 0.41683,0.43979 0.26545,0.1559 0.57224,0.15542 0.31426,-0.004 0.61309,-0.16382 0.29884,-0.15936 0.47018,-0.41385 0.17881,-0.25847 0.19725,-0.56576 0.0299,-0.3038 -0.12547,-0.59516 -0.15139,-0.28389 -0.42431,-0.43581 -0.26893,-0.14445 -0.58718,-0.14745 -0.30679,4.8e-4 -0.59815,0.15585 z"
         id="path1038" />
      <path
         d="m 140.41441,181.55055 -0.75963,0.39851 0.11124,-0.0844 q 0.42468,0.003 0.78468,0.26299 0.36778,0.2571 0.56419,0.71639 0.19641,0.4593 0.0471,0.86386 -0.13817,0.409 -0.563,0.59988 l -2.38213,1.01869 -0.31293,-0.73176 2.12523,-0.90883 q 0.26135,-0.12097 0.36158,-0.33879 0.11134,-0.21337 -0.0185,-0.51697 -0.11985,-0.28025 -0.37209,-0.43943 -0.25223,-0.15917 -0.58129,-0.175 -0.32573,-0.008 -0.68383,0.1451 l -1.51024,0.64584 -0.3096,-0.72398 3.22288,-1.37823 z"
         id="path1040" />
      <path
         d="m 141.86967,188.5705 q 0.73036,-0.19734 1.3843,0.17839 0.65395,0.37573 0.85129,1.10609 0.19626,0.72636 -0.17947,1.38031 -0.37573,0.65394 -1.10608,0.85128 -0.72637,0.19626 -1.38031,-0.17947 -0.65395,-0.37573 -0.85021,-1.10209 -0.19734,-0.73035 0.17839,-1.3843 0.37573,-0.65395 1.10209,-0.85021 z"
         id="path1042" />
      <path
         d="m 143.18498,193.74565 q 0.74572,-0.12753 1.36129,0.30825 0.61556,0.43577 0.74309,1.18149 0.12683,0.74164 -0.30894,1.3572 -0.43577,0.61557 -1.18149,0.7431 -0.74164,0.12683 -1.35721,-0.30894 -0.61557,-0.43578 -0.7424,-1.17742 -0.12752,-0.74572 0.30825,-1.36128 0.43577,-0.61557 1.17741,-0.7424 z"
         id="path1044" />
      <path
         d="m 144.00601,199.02035 q 0.75439,-0.0571 1.32642,0.43442 0.57204,0.49153 0.62914,1.24591 0.0568,0.75027 -0.43473,1.3223 -0.49152,0.57203 -1.24591,0.62914 -0.75026,0.0568 -1.3223,-0.43473 -0.57203,-0.49153 -0.62882,-1.24179 -0.0571,-0.75438 0.43442,-1.32642 0.49152,-0.57203 1.24178,-0.62883 z"
         id="path1046" />
    </g>
  </g>
</svg>
