<?xml version="1.0" standalone="no"?>
<!DOCTYPE svg PUBLIC "-//W3C//DTD SVG 20010904//EN"
 "http://www.w3.org/TR/2001/REC-SVG-20010904/DTD/svg10.dtd">
<svg version="1.0" xmlns="http://www.w3.org/2000/svg"
 width="772.000000pt" height="772.000000pt" viewBox="0 0 772.000000 772.000000"
 preserveAspectRatio="xMidYMid meet">
<metadata>
Created by potrace 1.14, written by Peter Selinger 2001-2017
</metadata>
<g transform="translate(0.000000,772.000000) scale(0.100000,-0.100000)"
fill="#000000" stroke="none">
<path d="M3611 7710 c-703 -49 -1392 -290 -1956 -685 -360 -252 -711 -602
-957 -955 -925 -1327 -925 -3093 0 -4420 186 -267 488 -590 732 -786 595 -475
1258 -750 2025 -840 204 -24 603 -24 810 0 904 104 1690 480 2320 1111 631
630 1007 1416 1111 2320 12 104 17 228 17 405 0 177 -5 301 -17 405 -88 762
-365 1430 -840 2025 -132 164 -407 439 -576 574 -580 463 -1271 749 -2006 830
-176 20 -500 27 -663 16z m485 -380 c558 -44 1081 -207 1538 -480 555 -332
1033 -842 1321 -1410 41 -81 94 -196 119 -256 87 -213 173 -521 210 -749 9
-55 21 -124 26 -153 5 -30 15 -137 21 -238 12 -187 2 -479 -21 -606 -5 -29
-17 -98 -26 -153 -139 -852 -586 -1605 -1284 -2160 -354 -282 -720 -470 -1172
-603 -245 -73 -494 -115 -781 -134 -611 -39 -1280 111 -1838 413 -541 292
-1014 748 -1343 1292 -332 550 -517 1307 -477 1950 23 372 116 787 252 1131
267 670 808 1297 1449 1678 92 54 312 168 395 203 508 215 1095 315 1611 275z"/>
<path d="M3560 6309 c-324 -37 -651 -165 -908 -356 -114 -85 -317 -293 -390
-401 -121 -177 -204 -383 -237 -587 -22 -135 -22 -2835 0 -2940 24 -115 75
-208 153 -281 81 -77 85 -81 170 -170 77 -81 174 -135 289 -159 104 -22 816
-21 916 1 204 46 371 192 428 374 28 92 35 227 15 320 -25 118 -77 212 -162
295 -41 38 -81 78 -91 88 -10 10 -50 52 -90 92 -53 55 -89 82 -142 107 l-71
33 0 64 0 63 23 -15 c216 -152 464 -227 751 -227 398 0 761 124 1071 365 333
259 556 682 605 1146 49 467 -96 988 -370 1333 -71 89 -349 371 -444 451 -251
209 -594 352 -959 400 -128 16 -428 19 -557 4z m653 -1329 c89 -28 131 -60
161 -124 46 -96 59 -176 53 -326 -7 -207 -58 -341 -172 -455 -113 -113 -221
-157 -385 -158 -163 -1 -302 44 -348 112 -70 106 -103 357 -68 515 75 336 427
539 759 436z"/>
</g>
</svg>
